<svg width="32" height="22" viewBox="0 0 32 22" fill="none" xmlns="http://www.w3.org/2000/svg">
<path d="M32 16.5C32 19.5375 30.3135 22 27 22H5C1.6865 22 0 19.5375 0 16.5V5.5C0 2.4625 1.6865 0 5 0H27C30.3135 0 32 2.4625 32 5.5V16.5Z" fill="#128807"/>
<path d="M28.5706 11.3952L16.0756 20.1752L3.58008 11.3952L16.0756 2.61523L28.5706 11.3952Z" fill="#F9CB38"/>
<path fill-rule="evenodd" clip-rule="evenodd" d="M21.0058 12.924C20.4368 14.8575 18.6563 16.3295 16.6403 16.5295C13.9468 16.799 11.5903 15.087 11.0173 12.4405C10.8477 11.6628 10.8693 10.8555 11.0803 10.088C11.1588 10.003 11.2673 9.98249 11.3753 9.96749C12.163 9.8574 12.9595 9.82274 13.7538 9.86399C14.6013 9.91199 15.4418 10.0295 16.2588 10.2605C17.0973 10.498 17.9093 10.808 18.6758 11.22C19.2528 11.5262 19.8038 11.8791 20.3233 12.275C20.4993 12.4115 20.6788 12.5455 20.8478 12.691C20.9233 12.756 20.9828 12.826 21.0058 12.924Z" fill="#002776"/>
<path fill-rule="evenodd" clip-rule="evenodd" d="M11.3633 9.30544C12.0088 7.86294 13.0973 6.90244 14.6018 6.45144C17.6318 5.54294 20.7403 7.54544 21.1908 10.6684C21.2608 11.1509 21.2638 11.6349 21.1898 12.1184C21.1133 12.1469 21.0563 12.1064 21.0038 12.0629C20.4546 11.6142 19.8687 11.2125 19.2523 10.8619C18.7776 10.5925 18.2844 10.3573 17.7763 10.1579C17.6863 10.1224 17.5733 10.1039 17.5423 9.98344C17.5748 9.92544 17.6158 9.87494 17.6648 9.82794C17.6823 9.80994 17.7078 9.79244 17.6843 9.76244C17.6763 9.75294 17.6598 9.75294 17.6458 9.75444C17.6083 9.75844 17.6133 9.78444 17.6148 9.81194C17.6178 9.90144 17.5658 9.95894 17.4973 10.0049C17.3758 10.0324 17.2593 9.99594 17.1608 9.94344C16.8788 9.79544 16.5668 9.74494 16.2683 9.66244C15.8028 9.53594 15.3248 9.46444 14.8478 9.38994C14.4671 9.32927 14.0839 9.28556 13.6993 9.25894C13.3493 9.23444 12.9928 9.23794 12.6403 9.26194C12.2558 9.28894 11.8703 9.31594 11.4878 9.36194C11.4638 9.36563 11.4392 9.36226 11.4171 9.35222C11.395 9.34219 11.3763 9.32593 11.3633 9.30544Z" fill="#002776"/>
<path fill-rule="evenodd" clip-rule="evenodd" d="M17.5461 9.95222C17.5441 10.0132 17.5986 10.0052 17.6316 10.0182C18.9228 10.5204 20.1235 11.2297 21.1866 12.1182C21.1561 12.3926 21.0954 12.6627 21.0056 12.9237C20.3801 12.4047 19.7396 11.9102 19.0311 11.5062C16.7916 10.2307 14.3936 9.72522 11.8301 9.99622C11.5801 10.0217 11.3301 10.0557 11.0801 10.0862C11.1446 9.81572 11.2266 9.55022 11.3611 9.30422C13.2326 9.05172 15.0716 9.19522 16.8761 9.75372C17.1001 9.82322 17.3136 9.93522 17.5526 9.95622L17.5461 9.95072" fill="#FEFEFE"/>
<path fill-rule="evenodd" clip-rule="evenodd" d="M19.8767 13.1748C19.7262 13.1588 19.8897 13.3433 19.7377 13.3393C19.6052 13.3373 19.5982 13.2313 19.5332 13.1723C19.5832 13.1203 19.6717 13.1098 19.6997 13.0288C19.7187 13.1143 19.7992 13.1323 19.8767 13.1748Z" fill="#D9DFEA"/>
<path fill-rule="evenodd" clip-rule="evenodd" d="M14.1985 14.0998C14.057 14.1163 14.1755 14.2703 14.057 14.2728C13.9375 14.2753 13.876 14.1868 13.852 14.0953C13.8435 14.0693 13.9585 14.0113 14.015 13.9683C14.022 14.0588 14.116 14.0548 14.1985 14.0998Z" fill="#E9ECF3"/>
<path fill-rule="evenodd" clip-rule="evenodd" d="M16.0715 13.8213C15.875 13.9483 16.0335 13.6613 15.918 13.6893C15.9555 13.6293 16.0615 13.6433 16.0685 13.5513C16.1185 13.6033 16.161 13.6633 16.2405 13.6743C16.127 13.6588 16.2505 13.9108 16.0715 13.8213Z" fill="#EDEFF5"/>
<path fill-rule="evenodd" clip-rule="evenodd" d="M12.0106 10.4523C11.9636 10.5418 11.9281 10.6418 11.7856 10.5818C11.7126 10.5513 11.7906 10.4513 11.7031 10.4418L11.8651 10.2993L11.9001 10.3688C11.9131 10.4283 12.0316 10.3493 12.0106 10.4523Z" fill="#F0F2F6"/>
<path fill-rule="evenodd" clip-rule="evenodd" d="M12.4649 12.6251C12.3904 12.6486 12.4439 12.8446 12.2839 12.7591C12.2679 12.7511 12.1979 12.7896 12.2109 12.7671C12.2529 12.6851 12.1589 12.6451 12.1734 12.5796C12.2609 12.6176 12.2559 12.4576 12.3454 12.5006C12.3519 12.5056 12.3519 12.5256 12.3564 12.5386C12.3659 12.6006 12.4869 12.5231 12.4649 12.6251Z" fill="#ECEFF4"/>
<path fill-rule="evenodd" clip-rule="evenodd" d="M11.6778 13.2041C11.5243 13.2576 11.6388 13.0721 11.5508 13.0736C11.5918 13.0391 11.6378 12.9746 11.6788 12.9771C11.7278 12.9796 11.7728 13.0401 11.8178 13.0746C11.7508 13.0971 11.8213 13.2786 11.6778 13.2041Z" fill="#D9DFEA"/>
<path fill-rule="evenodd" clip-rule="evenodd" d="M17.6117 14.9733C17.4492 15.0473 17.6072 14.8288 17.4987 14.8573C17.4877 14.7738 17.6232 14.8243 17.6062 14.7363L17.7527 14.8538C17.6932 14.8808 17.7527 15.0508 17.6117 14.9733Z" fill="#D8DEEA"/>
<path fill-rule="evenodd" clip-rule="evenodd" d="M18.6499 14.8528C18.5154 14.9088 18.5979 14.7278 18.5254 14.7098C18.5744 14.6783 18.6259 14.6448 18.6739 14.6123C18.6779 14.6863 18.7794 14.6593 18.7904 14.7248C18.7149 14.7293 18.7934 14.8923 18.6499 14.8528ZM19.5849 14.1798C19.4319 14.2573 19.5449 14.0538 19.4574 14.0623C19.4749 13.9973 19.5754 14.0218 19.5814 13.9468L19.7249 14.0543C19.6374 14.0518 19.7449 14.2663 19.5849 14.1798Z" fill="#DCE1EC"/>
<path fill-rule="evenodd" clip-rule="evenodd" d="M13.3932 13.2463C13.2332 13.3368 13.3377 13.1343 13.2637 13.1303C13.2712 13.0558 13.3842 13.0878 13.3892 13.0088C13.4042 13.0818 13.5012 13.0608 13.5222 13.1263C13.4267 13.1123 13.5627 13.3418 13.3932 13.2463Z" fill="#D4DAE7"/>
<path fill-rule="evenodd" clip-rule="evenodd" d="M14.0406 11.7274C13.9501 11.7214 14.0661 11.5789 13.9551 11.5879C13.9741 11.5079 14.0596 11.5244 14.1066 11.4829C14.1306 11.5334 14.1986 11.5449 14.2021 11.6174C14.2101 11.7499 14.0926 11.6814 14.0406 11.7274Z" fill="#F2F4F7"/>
<path fill-rule="evenodd" clip-rule="evenodd" d="M16.6764 12.7836C16.5379 12.8631 16.6109 12.6856 16.5469 12.6661L16.6764 12.5566C16.6794 12.6306 16.8209 12.6141 16.7809 12.6711C16.7569 12.7051 16.8344 12.8606 16.6764 12.7836Z" fill="#E6E9F1"/>
<path fill-rule="evenodd" clip-rule="evenodd" d="M16.0565 12.3381C15.8985 12.3541 16.0615 12.2106 15.959 12.2141C15.999 12.1766 16.0375 12.1126 16.0825 12.1086C16.1215 12.1046 16.1665 12.1681 16.209 12.2031C16.1535 12.2566 16.162 12.3946 16.0565 12.3381Z" fill="#EAEDF3"/>
<path fill-rule="evenodd" clip-rule="evenodd" d="M19.8915 13.5049C19.924 13.5909 19.988 13.6024 20.038 13.6329C19.987 13.6904 19.967 13.7784 19.861 13.7784C19.7525 13.7794 19.826 13.6969 19.8015 13.6584C19.741 13.5624 19.9645 13.6434 19.8915 13.5049Z" fill="#E4E8F0"/>
<path fill-rule="evenodd" clip-rule="evenodd" d="M18.7589 15.2469C18.7209 15.3034 18.7469 15.3574 18.6459 15.3594C18.5304 15.3614 18.5674 15.2769 18.5624 15.2509C18.5529 15.2079 18.6189 15.1669 18.6569 15.1754C18.6899 15.1814 18.7539 15.1999 18.7589 15.2469Z" fill="#CED5E4"/>
<path fill-rule="evenodd" clip-rule="evenodd" d="M13.3572 13.6451C13.2747 13.6546 13.3432 13.7626 13.2387 13.7591C13.1432 13.7561 13.1572 13.6916 13.1467 13.6526C13.1302 13.5981 13.2107 13.5996 13.2287 13.5586C13.2667 13.5851 13.3052 13.6116 13.3572 13.6451Z" fill="#DAE0EB"/>
<path fill-rule="evenodd" clip-rule="evenodd" d="M18.5352 14.2161C18.5705 14.1901 18.6067 14.1648 18.6437 14.1401C18.6467 14.1956 18.7662 14.1636 18.7262 14.2346C18.7097 14.2631 18.7502 14.3411 18.6467 14.3341C18.5537 14.3276 18.5757 14.2626 18.5352 14.2161Z" fill="#D8DEE9"/>
<path fill-rule="evenodd" clip-rule="evenodd" d="M18.1558 14.3875C18.1378 14.486 18.0818 14.502 18.0203 14.5135C17.9158 14.531 17.9943 14.4525 17.9773 14.4225C17.9333 14.3475 18.0443 14.362 18.0573 14.313C18.0863 14.351 18.1528 14.35 18.1558 14.3875Z" fill="#CBD2E3"/>
<path fill-rule="evenodd" clip-rule="evenodd" d="M17.5705 11.1448C17.5355 11.1613 17.582 11.2448 17.507 11.2208C17.45 11.2013 17.38 11.1742 17.385 11.1042C17.387 11.0772 17.455 11.0547 17.493 11.0312C17.4995 11.0818 17.6075 11.0653 17.5705 11.1448Z" fill="#D1D8E6"/>
<path fill-rule="evenodd" clip-rule="evenodd" d="M20.4002 13.3379C20.3062 13.3749 20.3487 13.2974 20.3322 13.2749C20.2692 13.1894 20.3937 13.2019 20.4002 13.1509C20.4387 13.1764 20.5137 13.2054 20.5107 13.2274C20.5085 13.256 20.4962 13.2828 20.4759 13.3031C20.4556 13.3233 20.4288 13.3357 20.4002 13.3379Z" fill="#DADFEA"/>
<path fill-rule="evenodd" clip-rule="evenodd" d="M15.5661 12.5747C15.5661 12.6327 15.6831 12.6097 15.6436 12.6822C15.6276 12.7117 15.6616 12.7907 15.5806 12.7742C15.5191 12.7617 15.4571 12.7257 15.4551 12.6647C15.4551 12.6362 15.5261 12.6057 15.5661 12.5747Z" fill="#CAD2E2"/>
<path fill-rule="evenodd" clip-rule="evenodd" d="M17.165 14.3841C17.119 14.3626 17.117 14.3021 17.12 14.2731C17.125 14.2346 17.1765 14.1826 17.2205 14.2036C17.2475 14.2166 17.324 14.2091 17.3055 14.2791C17.2885 14.3461 17.2215 14.3556 17.165 14.3841Z" fill="#D0D7E5"/>
<path fill-rule="evenodd" clip-rule="evenodd" d="M19.1016 14.2961C19.1036 14.2956 19.1386 14.2471 19.1781 14.2461C19.2066 14.2451 19.2356 14.3041 19.2661 14.3371C19.2251 14.3486 19.2601 14.4241 19.1791 14.4231C19.1061 14.4216 19.1061 14.3886 19.1016 14.2961Z" fill="#EFF2F6"/>
<path fill-rule="evenodd" clip-rule="evenodd" d="M15.8835 13.0301C15.87 13.0841 15.87 13.1176 15.822 13.1166C15.773 13.1156 15.749 13.0976 15.75 13.0476C15.75 13.0081 15.776 12.9806 15.8055 12.9831C15.8395 12.9856 15.888 12.9951 15.8835 13.0301Z" fill="#CCD4E3"/>
<path fill-rule="evenodd" clip-rule="evenodd" d="M12.818 12.252C12.842 12.278 12.8695 12.2985 12.88 12.325C12.889 12.347 12.875 12.3805 12.844 12.384C12.8095 12.387 12.7725 12.386 12.7615 12.343C12.7515 12.301 12.788 12.286 12.818 12.252Z" fill="#E0E5EE"/>
<path fill-rule="evenodd" clip-rule="evenodd" d="M12.464 12.6251C12.4505 12.5676 12.3615 12.6041 12.3555 12.5381C12.3745 12.5881 12.523 12.4766 12.464 12.6251Z" fill="#7085B1"/>
<path fill-rule="evenodd" clip-rule="evenodd" d="M12.0109 10.4526C11.9999 10.3911 11.9054 10.4396 11.9004 10.3691C11.9269 10.4111 12.0609 10.3116 12.0109 10.4526Z" fill="#5C75A7"/>
<path fill-rule="evenodd" clip-rule="evenodd" d="M17.5554 9.95818C17.5649 9.92018 17.5954 9.85818 17.5834 9.84668C17.4204 9.70168 17.6379 9.67718 17.6704 9.64768C17.7299 9.59018 17.7204 9.83268 17.8774 9.67918C17.7929 9.86668 17.6799 9.92068 17.5499 9.95268L17.5554 9.95818Z" fill="#E7EAF2"/>
<path fill-rule="evenodd" clip-rule="evenodd" d="M12.7354 9.80265C12.5764 9.78715 12.7179 9.58015 12.6834 9.46015C12.6404 9.30515 12.7534 9.30715 12.8634 9.30665C13.0339 9.30565 13.1304 9.37765 13.1304 9.55765C13.1299 9.73465 13.0479 9.80465 12.7354 9.80265Z" fill="#15A24A"/>
<path fill-rule="evenodd" clip-rule="evenodd" d="M18.8104 10.8016C18.7754 10.9086 18.6459 10.9756 18.6239 11.1076C18.6219 11.1251 18.5719 11.1216 18.5624 11.0706C18.5224 10.8316 18.5204 10.8321 18.3439 10.9601C18.3299 10.9706 18.3054 10.9801 18.2919 10.9756C18.2659 10.9641 18.2554 10.9381 18.2709 10.9086C18.3294 10.7946 18.3844 10.6776 18.4499 10.5671C18.4939 10.4941 18.5474 10.5551 18.5904 10.5761C18.6849 10.6226 18.8014 10.6491 18.8104 10.8016Z" fill="#13A248"/>
<path fill-rule="evenodd" clip-rule="evenodd" d="M19.2597 11.1906C19.1677 11.2276 19.1232 11.1581 19.0642 11.1331C19.0242 11.1161 18.9867 11.1001 18.9597 11.1446C18.9302 11.1916 18.9597 11.2186 19.0002 11.2396C19.0312 11.2551 19.0642 11.2671 19.0872 11.2916C19.1277 11.3341 19.2547 11.3226 19.2032 11.4131C19.1627 11.4851 19.0947 11.4011 19.0497 11.3746C18.9722 11.3271 18.8187 11.3011 18.8352 11.2186C18.8607 11.0861 18.9362 10.9421 19.0367 10.8511C19.1172 10.7781 19.2062 10.9161 19.2967 10.9506C19.3357 10.9651 19.4022 10.9781 19.3907 11.0396C19.3797 11.1031 19.3327 11.0661 19.2967 11.0576C19.2122 11.0381 19.1302 10.8951 19.0637 10.9941C19.0237 11.0531 19.1882 11.0776 19.2402 11.1426C19.2482 11.1521 19.2502 11.1651 19.2597 11.1906ZM20.3372 11.8976C20.3522 12.0146 20.3047 12.0941 20.1822 12.0741C20.0552 12.0531 19.9587 11.9756 19.9367 11.8366C19.9347 11.8226 19.9517 11.7941 19.9657 11.7901C19.9738 11.7874 19.9823 11.7866 19.9907 11.7876C19.9991 11.7886 20.0072 11.7915 20.0144 11.796C20.0216 11.8004 20.0278 11.8064 20.0324 11.8135C20.037 11.8207 20.04 11.8287 20.0412 11.8371C20.0572 11.9326 20.1072 11.9751 20.2077 11.9771C20.2272 11.8206 19.9447 11.7491 20.1072 11.5866C20.1887 11.5051 20.2882 11.5726 20.3592 11.6381C20.4247 11.6976 20.5047 11.7631 20.3852 11.8481C20.3682 11.8391 20.3452 11.8246 20.3327 11.8346C20.3072 11.8516 20.3322 11.8761 20.3372 11.8976Z" fill="#11A147"/>
<path fill-rule="evenodd" clip-rule="evenodd" d="M16.8822 10.4087C16.8227 10.3752 16.8257 10.3432 16.8352 10.3082C16.8542 10.2337 16.8157 10.1947 16.7477 10.1737C16.6797 10.1517 16.6272 10.1547 16.6087 10.2397C16.6022 10.2777 16.5822 10.3042 16.5407 10.2902C16.4927 10.2727 16.5167 10.2337 16.5257 10.2052C16.5447 10.1397 16.5617 10.0737 16.5917 10.0112C16.6187 9.94866 16.5997 9.83416 16.6982 9.84166C16.8027 9.84916 16.9157 9.87416 16.9952 9.96066C17.0307 9.99866 17.0452 10.0642 17.0162 10.0927C16.9317 10.1797 16.9387 10.3027 16.8822 10.4087Z" fill="#0FA046"/>
<path fill-rule="evenodd" clip-rule="evenodd" d="M13.7973 9.77193C13.6358 9.83293 13.5083 9.79743 13.3838 9.79993C13.3273 9.80143 13.3223 9.75893 13.3223 9.71593C13.3256 9.66826 13.3269 9.62059 13.3263 9.57293C13.3323 9.30943 13.4258 9.24193 13.6848 9.31543C13.7138 9.32343 13.7413 9.32843 13.7433 9.36093C13.7433 9.40593 13.7108 9.41393 13.6708 9.41293C13.6651 9.41159 13.6588 9.41109 13.6518 9.41143C13.5743 9.43043 13.4353 9.34293 13.4328 9.45893C13.4298 9.54793 13.5813 9.48493 13.6588 9.51493C13.6691 9.51993 13.6824 9.52893 13.6988 9.54193C13.6498 9.63043 13.5683 9.58093 13.5053 9.59143C13.4678 9.59743 13.4188 9.58093 13.4133 9.64193C13.4063 9.71393 13.4563 9.71043 13.5053 9.71543C13.5888 9.72543 13.6793 9.69393 13.7973 9.77193Z" fill="#0B9F43"/>
<path fill-rule="evenodd" clip-rule="evenodd" d="M12.4694 9.81008C12.3824 9.79108 12.3944 9.74108 12.3794 9.70608C12.3534 9.64158 12.3019 9.64158 12.2454 9.64608C12.1809 9.65208 12.1459 9.67708 12.1514 9.74858C12.1554 9.78358 12.1694 9.84008 12.1044 9.83208C12.0484 9.82508 12.0644 9.77058 12.0614 9.73358C12.0564 9.67308 12.0504 9.61108 12.0564 9.55108C12.0644 9.48408 12.0004 9.38158 12.0969 9.35758C12.1964 9.33158 12.3114 9.31308 12.4149 9.36258C12.4599 9.38408 12.4954 9.43658 12.4789 9.47908C12.4409 9.58608 12.4709 9.69458 12.4694 9.81008Z" fill="#079D3F"/>
<path fill-rule="evenodd" clip-rule="evenodd" d="M11.4141 9.64008C11.4301 9.50458 11.4896 9.39458 11.6381 9.39958C11.7806 9.40408 11.8566 9.50308 11.8566 9.64558C11.8566 9.78708 11.7906 9.88458 11.6401 9.88358C11.4871 9.88258 11.4351 9.77158 11.4141 9.64008Z" fill="#15A24A"/>
<path fill-rule="evenodd" clip-rule="evenodd" d="M20.933 12.1798C20.919 12.3143 20.8525 12.4158 20.699 12.4293C20.5575 12.4408 20.4825 12.3598 20.4715 12.2268C20.459 12.0923 20.591 11.9638 20.7255 11.9648C20.8435 11.9658 20.93 12.0513 20.933 12.1798Z" fill="#11A147"/>
<path fill-rule="evenodd" clip-rule="evenodd" d="M18.1252 10.6147C18.2382 10.7057 18.1012 10.7657 18.0962 10.8422C18.0022 10.7987 17.8847 10.8162 17.8087 10.7337C17.7277 10.6457 17.7427 10.5462 17.7957 10.4492C17.8542 10.3467 17.9442 10.3027 18.0547 10.3417C18.1557 10.3777 18.2312 10.4457 18.1822 10.5737C18.1047 10.5877 18.0412 10.4857 17.9322 10.5542C18.0047 10.5877 18.0917 10.5412 18.1252 10.6147Z" fill="#0C9F43"/>
<path fill-rule="evenodd" clip-rule="evenodd" d="M15.4063 9.58509C15.3403 9.66259 15.2918 9.63259 15.2463 9.63359C15.2023 9.63359 15.1553 9.59709 15.1008 9.64259C15.1498 9.72259 15.2683 9.67109 15.3143 9.75059C15.3078 9.76209 15.3048 9.77759 15.2963 9.78559C15.2303 9.83759 15.1248 9.7116 15.0838 9.8156C15.0463 9.9051 15.1448 9.87409 15.1873 9.88909C15.2353 9.90809 15.2948 9.90109 15.3528 9.96609C15.2183 10.0251 15.0578 9.99759 15.0023 9.93259C14.9148 9.83009 14.9763 9.64809 15.0428 9.55709C15.1213 9.44959 15.2648 9.55459 15.4063 9.58509Z" fill="#19A44D"/>
<path fill-rule="evenodd" clip-rule="evenodd" d="M16.2586 10.0202C16.1451 10.0082 16.0161 9.92818 15.9836 10.1152C15.9826 10.1212 15.9431 10.1297 15.9311 10.1217C15.9176 10.1142 15.9101 10.0862 15.9126 10.0702C15.9421 9.95168 15.9571 9.82468 16.0096 9.71818C16.0706 9.59818 16.1741 9.69968 16.2596 9.71118C16.3616 9.72468 16.4181 9.78668 16.4071 9.89418C16.3971 9.98668 16.3271 10.0117 16.2586 10.0202Z" fill="#0D9F44"/>
<path fill-rule="evenodd" clip-rule="evenodd" d="M17.6106 10.3066C17.5996 10.4571 17.5256 10.5611 17.3751 10.5656C17.2406 10.5706 17.1651 10.4761 17.1681 10.3421C17.1721 10.1971 17.2426 10.0921 17.3991 10.0876C17.5426 10.0826 17.5981 10.1791 17.6106 10.3066Z" fill="#0FA046"/>
<path fill-rule="evenodd" clip-rule="evenodd" d="M14.2404 9.76365C14.2239 9.79915 14.2104 9.84965 14.1629 9.83815C14.0804 9.81865 14.1174 9.73915 14.0974 9.68715C14.0364 9.62765 14.0524 9.70965 14.0334 9.72465C14.0264 9.76165 14.0434 9.81815 13.9934 9.82565C13.9319 9.83315 13.9464 9.77415 13.9479 9.73915C13.9529 9.66615 13.9539 9.58965 13.9739 9.51965C13.9914 9.45965 13.9279 9.34915 14.0474 9.34815C14.1529 9.34765 14.1299 9.45515 14.1434 9.51965C14.1574 9.59365 14.1649 9.62515 14.2254 9.55165C14.2879 9.53515 14.3009 9.58065 14.3154 9.62465C14.3234 9.68865 14.2949 9.73315 14.2404 9.76365Z" fill="#0EA044"/>
<path fill-rule="evenodd" clip-rule="evenodd" d="M19.5656 11.5998C19.6026 11.5998 19.6401 11.6488 19.6761 11.6068C19.7036 11.5753 19.6791 11.5443 19.6546 11.5188C19.6359 11.4998 19.6179 11.4801 19.6006 11.4598C19.5496 11.3983 19.4781 11.3393 19.5486 11.2503C19.6126 11.1688 19.6871 11.1888 19.7611 11.2403C19.7746 11.2663 19.7701 11.2913 19.7561 11.3148C19.7016 11.4003 19.8031 11.4523 19.8011 11.5253C19.8166 11.5938 19.8266 11.6628 19.7511 11.7023C19.6571 11.7523 19.5846 11.7063 19.5156 11.6463C19.5081 11.6068 19.5226 11.5873 19.5656 11.5998Z" fill="#10A146"/>
<path fill-rule="evenodd" clip-rule="evenodd" d="M18.1267 10.6148C18.0882 10.6418 18.0107 10.5543 18.0132 10.6203C18.0182 10.7373 17.9597 10.7268 17.9052 10.6923C17.8317 10.6468 17.8277 10.5688 17.8742 10.4968C17.9192 10.4263 17.9827 10.3853 18.0597 10.4428C18.1067 10.4773 18.1422 10.5293 18.1827 10.5738L18.1267 10.6148Z" fill="#ECF7F0"/>
<path fill-rule="evenodd" clip-rule="evenodd" d="M14.2726 9.64481C14.2582 9.61384 14.2421 9.58364 14.2246 9.55431C14.2421 9.50981 14.2581 9.46481 14.2791 9.42181C14.2981 9.38131 14.3311 9.35881 14.3776 9.37381C14.4296 9.39131 14.4256 9.43131 14.4226 9.47331C14.4116 9.59564 14.4014 9.71798 14.3921 9.84031C14.3191 9.88681 14.3006 9.84431 14.2886 9.78131C14.2796 9.73581 14.3031 9.68681 14.2726 9.64481Z" fill="#17A34C"/>
<path fill-rule="evenodd" clip-rule="evenodd" d="M19.8028 11.5247C19.7578 11.4787 19.7098 11.4352 19.6678 11.3862C19.6188 11.3282 19.6378 11.2927 19.7108 11.2832C19.8163 11.3067 19.8808 11.3577 19.8498 11.4787C19.8351 11.494 19.8195 11.5094 19.8028 11.5247Z" fill="#D7EFE0"/>
<path fill-rule="evenodd" clip-rule="evenodd" d="M19.8499 11.4787C19.8014 11.4157 19.7884 11.3257 19.7109 11.2832L19.7629 11.2397C19.8469 11.2992 20.0004 11.3332 19.8499 11.4787Z" fill="#2BAB5B"/>
<path fill-rule="evenodd" clip-rule="evenodd" d="M20.3363 11.8976C20.3298 11.8936 20.3213 11.8916 20.3183 11.8861C20.2783 11.8121 20.1458 11.7456 20.1908 11.6801C20.2473 11.6011 20.3063 11.6946 20.3373 11.7621C20.3513 11.7906 20.3683 11.8186 20.3843 11.8481C20.3677 11.8647 20.3517 11.8812 20.3363 11.8976Z" fill="#E6F5EC"/>
<path fill-rule="evenodd" clip-rule="evenodd" d="M19.5656 11.5999C19.5502 11.6155 19.5336 11.6312 19.5156 11.6469C19.4946 11.6319 19.4656 11.6214 19.4521 11.5999C19.4266 11.5514 19.3536 11.4869 19.4381 11.4489C19.5091 11.4149 19.5091 11.5054 19.5321 11.5494C19.5416 11.5679 19.5536 11.5834 19.5656 11.5999Z" fill="#29AA59"/>
<path fill-rule="evenodd" clip-rule="evenodd" d="M14.2737 9.64502C14.3467 9.67352 14.3082 9.73452 14.3092 9.78002C14.3132 9.84252 14.3352 9.86352 14.3937 9.84152C14.2717 9.95952 14.2872 9.80202 14.2402 9.76702C14.2527 9.72552 14.2622 9.68502 14.2737 9.64502Z" fill="#DDF1E4"/>
<path fill-rule="evenodd" clip-rule="evenodd" d="M14.0312 9.72497V9.56396C14.1002 9.58596 14.1023 9.63446 14.0953 9.68746L14.0312 9.72497Z" fill="#6FC690"/>
<path fill-rule="evenodd" clip-rule="evenodd" d="M12.7852 9.55989C12.7922 9.48689 12.7572 9.39189 12.8817 9.39989C12.9727 9.40539 13.0387 9.44189 13.0437 9.54589C13.0487 9.65789 12.9832 9.70339 12.8797 9.71089C12.7482 9.72139 12.8017 9.61789 12.7852 9.55989Z" fill="#F5FBF7"/>
<path fill-rule="evenodd" clip-rule="evenodd" d="M18.5503 10.6602C18.6023 10.6887 18.6818 10.6942 18.6988 10.7712C18.7073 10.8112 18.6728 10.8377 18.6373 10.8262C18.5713 10.8062 18.4838 10.8052 18.4748 10.7122C18.4723 10.6852 18.5013 10.6512 18.5503 10.6602Z" fill="#EFF8F3"/>
<path fill-rule="evenodd" clip-rule="evenodd" d="M16.93 10.045C16.9165 10.097 16.88 10.115 16.838 10.0995C16.7815 10.079 16.6905 10.1015 16.6895 10.0025C16.6875 9.95105 16.7225 9.93555 16.7695 9.95105C16.8315 9.97105 16.9065 9.96855 16.93 10.045Z" fill="#DEF2E5"/>
<path fill-rule="evenodd" clip-rule="evenodd" d="M12.2587 9.42969C12.3077 9.43569 12.3852 9.40969 12.3802 9.49319C12.3752 9.56619 12.3012 9.55469 12.2482 9.55569C12.2057 9.55719 12.1447 9.57919 12.1407 9.50269C12.1377 9.41169 12.2087 9.44019 12.2587 9.42969Z" fill="#F3FAF5"/>
<path fill-rule="evenodd" clip-rule="evenodd" d="M11.6251 9.49902C11.7156 9.50502 11.7606 9.55902 11.7641 9.64402C11.7691 9.72002 11.7316 9.78502 11.6536 9.79202C11.5636 9.80052 11.5231 9.73202 11.5181 9.64852C11.5131 9.57152 11.5431 9.51552 11.6251 9.49902Z" fill="#F3FAF6"/>
<path fill-rule="evenodd" clip-rule="evenodd" d="M20.8335 12.1976C20.8205 12.2806 20.7705 12.3391 20.674 12.3391C20.5965 12.3381 20.5675 12.2815 20.5755 12.213C20.583 12.12 20.6385 12.0601 20.733 12.0616C20.8075 12.0636 20.8365 12.1171 20.8335 12.1976Z" fill="#F9FCFA"/>
<path fill-rule="evenodd" clip-rule="evenodd" d="M16.1399 9.77409C16.1904 9.80509 16.2919 9.77308 16.3064 9.87308C16.3109 9.91108 16.2689 9.93059 16.2354 9.92309C16.1699 9.90859 16.0784 9.93208 16.0704 9.82658C16.0689 9.79408 16.0834 9.75909 16.1399 9.77409Z" fill="#E7F5EC"/>
<path fill-rule="evenodd" clip-rule="evenodd" d="M17.5102 10.3183C17.5007 10.4048 17.4582 10.4653 17.3707 10.4653C17.2847 10.4663 17.2542 10.4063 17.2582 10.3273C17.2652 10.2403 17.3147 10.1823 17.3992 10.1788C17.4832 10.1758 17.5102 10.2428 17.5102 10.3183Z" fill="#F5FBF7"/>
</svg>
