<svg width="14" height="14" viewBox="0 0 14 14" fill="none" xmlns="http://www.w3.org/2000/svg">
<path d="M13.2993 1.4H2.91885L2.79286 0.595C2.73686 0.252 2.44288 0 2.09989 0H0V1.4H1.49792L2.80686 9.905C2.86286 10.248 3.15684 10.5 3.49982 10.5H11.8994V9.1H4.10179L3.8848 7.7H11.8994C12.2144 7.7 12.4874 7.49 12.5714 7.189L13.9713 2.289C14.0023 2.18474 14.0083 2.07465 13.9888 1.96763C13.9694 1.86062 13.925 1.75968 13.8593 1.673C13.7263 1.498 13.5163 1.393 13.2993 1.393V1.4ZM4.19979 11.2C3.8285 11.2 3.47243 11.3475 3.20989 11.6101C2.94735 11.8726 2.79986 12.2287 2.79986 12.6C2.79986 12.9713 2.94735 13.3274 3.20989 13.5899C3.47243 13.8525 3.8285 14 4.19979 14C4.57107 14 4.92715 13.8525 5.18969 13.5899C5.45222 13.3274 5.59972 12.9713 5.59972 12.6C5.59972 12.2287 5.45222 11.8726 5.18969 11.6101C4.92715 11.3475 4.57107 11.2 4.19979 11.2ZM10.4995 11.2C10.1282 11.2 9.77211 11.3475 9.50957 11.6101C9.24703 11.8726 9.09954 12.2287 9.09954 12.6C9.09954 12.9713 9.24703 13.3274 9.50957 13.5899C9.77211 13.8525 10.1282 14 10.4995 14C10.8708 14 11.2268 13.8525 11.4894 13.5899C11.7519 13.3274 11.8994 12.9713 11.8994 12.6C11.8994 12.2287 11.7519 11.8726 11.4894 11.6101C11.2268 11.3475 10.8708 11.2 10.4995 11.2Z" fill="#F7F3EE"/>
</svg>
