<svg width="10" height="11" viewBox="0 0 10 11" fill="none" xmlns="http://www.w3.org/2000/svg">
<path d="M2.26962 8.80342C1.75458 9.06052 1.20506 9.22414 0.642441 9.28791C0.605292 9.29216 0.567823 9.28441 0.534607 9.26563C0.501391 9.24684 0.473866 9.21783 0.455392 9.18212C0.0384991 8.37394 -0.098542 7.36848 0.0707156 6.26517C0.286615 4.84133 0.98865 3.41591 2.04795 2.25071C3.10725 1.08552 4.40409 0.313303 5.69757 0.0758206C6.79342 -0.124638 7.783 0.0758207 8.5485 0.636469C8.57983 0.659099 8.60446 0.691302 8.61937 0.729122C8.63429 0.766941 8.63883 0.808729 8.63244 0.84935C8.62606 0.889971 8.60902 0.927656 8.58343 0.957772C8.55784 0.987889 8.52481 1.00913 8.4884 1.01887C8.12804 1.11336 7.77671 1.24548 7.43919 1.41344C6.39239 1.93707 5.0542 3.05625 4.62528 5.41732C4.33149 7.01887 3.53953 8.15815 2.26962 8.80342ZM9.54433 1.817C9.52589 1.78139 9.49844 1.75243 9.46532 1.73365C9.4322 1.71487 9.39484 1.70708 9.35776 1.71122C8.79492 1.77457 8.24518 1.9382 7.7301 2.19571C6.46019 2.84098 5.66824 3.98026 5.37684 5.58075C4.94745 7.94182 3.60974 9.061 2.56294 9.58463C2.22542 9.75259 1.87409 9.88471 1.51373 9.9792C1.4765 9.98844 1.44261 10.0097 1.41637 10.0401C1.39013 10.0706 1.37274 10.109 1.36639 10.1504C1.36005 10.1918 1.36505 10.2344 1.38076 10.2726C1.39646 10.3109 1.42216 10.3432 1.45459 10.3653C2.02535 10.7842 2.72017 11 3.49097 11C3.7636 10.9991 4.03571 10.9736 4.30456 10.9238C5.59851 10.6864 6.89487 9.91414 7.95418 8.74894C9.01348 7.58375 9.71551 6.15727 9.93141 4.73449C10.0968 3.63118 9.96122 2.62518 9.54433 1.817Z" fill="#9A8D7F"/>
</svg>
