<svg width="36" height="37" viewBox="0 0 36 37" fill="none" xmlns="http://www.w3.org/2000/svg">
<path d="M15.6847 3.56322C17.7428 3.80857 19.6146 4.88649 20.7619 7.09241L20.7692 7.10659C19.2684 6.94823 17.8156 7.14273 16.4577 7.75132C14.7153 8.5324 13.1775 9.97396 11.9091 12.1171C10.7514 14.0746 9.39517 15.3146 7.92224 15.975C6.55191 16.5893 5.03815 16.7208 3.41855 16.4094C2.53179 14.1505 2.84855 11.9331 3.86525 10.0339C4.89357 8.11333 6.63676 6.50974 8.59441 5.42723C8.88083 5.26881 9.16786 5.11168 9.45549 4.95586C11.4212 3.89059 13.6467 3.32127 15.6845 3.56406" fill="#B6A398" fill-opacity="0.7"/>
<path d="M4.07788 17.8426L4.08553 17.8569C5.23335 20.0625 7.10507 21.1409 9.16283 21.3857C11.2006 21.6284 13.4261 21.0591 15.3918 19.9939C15.6795 19.8379 15.9665 19.6806 16.253 19.5221C18.2111 18.4397 19.9537 16.8364 20.9821 14.9158C21.9993 13.0163 22.316 10.7989 21.4289 8.53995C19.8093 8.22846 18.2959 8.36012 16.9252 8.97434C15.4523 9.63474 14.0964 10.8748 12.9383 12.8322C11.6699 14.9753 10.1326 16.417 8.38969 17.198C7.03182 17.8066 5.57903 18.0011 4.07788 17.8426Z" fill="#B6A398" fill-opacity="0.7"/>
<path d="M25.5677 18.4178C27.3444 17.8978 29.2164 18.1323 30.8265 19.5548L30.8368 19.564C29.5473 19.9602 28.4032 20.6315 27.4617 21.6123C26.2535 22.8708 25.4126 24.6041 25.0047 26.8233C24.6328 28.8501 23.8817 30.3528 22.8605 31.4168C21.9104 32.4066 20.697 33.0473 19.2634 33.3585C17.853 31.8007 17.4511 29.8543 17.7237 27.9254C17.9996 25.9746 18.962 24.0351 20.258 22.4514C20.4476 22.2197 20.638 21.9888 20.8294 21.7588C22.1372 20.1866 23.8085 18.9336 25.5677 18.4186" fill="#B6A398" fill-opacity="0.7"/>
<path d="M20.2409 34.3122L20.2515 34.3214C21.862 35.7435 23.734 35.9783 25.5103 35.4579C27.2695 34.9429 28.9408 33.6899 30.2486 32.1177C30.4399 31.8875 30.6304 31.6565 30.82 31.4247C32.1164 29.841 33.0784 27.9019 33.3543 25.9512C33.6273 24.0218 33.2254 22.0754 31.8146 20.5176C30.381 20.8288 29.1679 21.4695 28.2175 22.4594C27.1962 23.5234 26.4455 25.026 26.0733 27.0528C25.6654 29.272 24.8248 31.0053 23.6163 32.2639C22.6748 33.2446 21.5307 33.916 20.2409 34.3122Z" fill="#B6A398" fill-opacity="0.7"/>
</svg>
