<svg width="64" height="65" viewBox="0 0 64 65" fill="none" xmlns="http://www.w3.org/2000/svg">
<path d="M40.1598 55.6963C36.9882 55.8339 33.9231 54.6632 31.7184 51.6032L31.7044 51.5835C34.0129 51.452 36.1742 50.7975 38.1042 49.5388C40.5808 47.9234 42.6077 45.3574 44.0783 41.7946C45.4202 38.5405 47.2145 36.3251 49.308 34.9593C51.2557 33.6887 53.5227 33.1146 56.0436 33.1859C57.8646 36.3906 57.8523 39.8304 56.7118 42.9612C55.5583 46.1272 53.2541 48.9897 50.5149 51.1154C50.1141 51.4264 49.7122 51.7357 49.309 52.0431C46.554 54.1446 43.3004 55.5586 40.16 55.695" fill="#B6A398" fill-opacity="0.7"/>
<path d="M54.7425 31.1789L54.7279 31.1591C52.5224 28.0996 49.4574 26.9283 46.2864 27.0666C43.1459 27.203 39.8924 28.617 37.1373 30.7185C36.7342 31.0262 36.3322 31.3357 35.9314 31.6469C33.1915 33.7724 30.8881 36.6344 29.7345 39.8004C28.5933 42.9317 28.581 46.3716 30.4026 49.5764C32.9235 49.6476 35.1899 49.0734 37.1382 47.803C39.2317 46.4372 41.0254 44.2217 42.368 40.9677C43.8385 37.4049 45.8648 34.8388 48.3421 33.2235C50.2721 31.9647 52.4334 31.3102 54.7425 31.1789Z" fill="#B6A398" fill-opacity="0.7"/>
<path d="M27.7229 32.9894C26.0397 35.4421 23.5807 37.0844 20.3957 37.0274L20.3753 37.0269C21.5803 35.2242 22.3692 33.2397 22.6432 31.0911C22.9945 28.3338 22.4878 25.3827 21.0339 22.2917C19.7053 19.4694 19.2926 16.8883 19.5894 14.5574C19.8657 12.3889 20.7649 10.3701 22.2181 8.52148C25.2812 8.94684 27.4709 10.8767 28.8332 13.4792C30.2108 16.1112 30.752 19.4356 30.5798 22.6744C30.5547 23.1483 30.5277 23.6221 30.4989 24.0958C30.3024 27.333 29.3886 30.5598 27.7221 32.9885" fill="#B6A398" fill-opacity="0.7"/>
<path d="M20.2101 8.37531L20.1893 8.3752C17.0042 8.31902 14.5448 9.96095 12.8624 12.4137C11.196 14.8424 10.2822 18.0691 10.0857 21.3064C10.0571 21.7802 10.0302 22.2541 10.0052 22.7282C9.83252 25.9674 10.3738 29.291 11.7514 31.923C13.1137 34.5263 15.3033 36.4562 18.3669 36.8811C19.82 35.0325 20.7189 33.0141 20.9955 30.8452C21.2924 28.5143 20.8793 25.9336 19.5511 23.1109C18.0971 20.0199 17.59 17.0692 17.9418 14.3115C18.2157 12.1629 19.0046 10.1784 20.2101 8.37531Z" fill="#B6A398" fill-opacity="0.7"/>
</svg>
