<svg width="32" height="22" viewBox="0 0 32 22" fill="none" xmlns="http://www.w3.org/2000/svg">
<path d="M0 7.5H32V14.5H0V7.5Z" fill="#F9CB38"/>
<path d="M27 0H5C1.6865 0 0 2.4625 0 5.5V7.5H32V5.5C32 2.4625 30.3135 0 27 0Z" fill="#128807"/>
<path d="M0 16.5C0 19.5375 1.6865 22 5 22H27C30.3135 22 32 19.5375 32 16.5V14.5H0V16.5Z" fill="#EC1C24"/>
<path fill-rule="evenodd" clip-rule="evenodd" d="M11.2587 12.8848C11.0452 12.4863 10.8592 12.0768 10.7467 11.6368C10.4027 10.2893 10.5487 9.00033 11.2037 7.77033C11.2223 7.73431 11.2404 7.69797 11.2577 7.66133C11.5247 7.22983 11.8277 6.82733 12.2002 6.47983C13.0707 5.66883 14.0932 5.18483 15.2807 5.08183C16.9957 4.93333 18.4452 5.49783 19.6322 6.74033C19.8977 7.01933 20.1127 7.33683 20.3172 7.66083C20.5292 8.05983 20.7162 8.47033 20.8277 8.90983C21.1747 10.2708 21.0232 11.5708 20.3517 12.8063C20.3391 12.8323 20.3271 12.8582 20.3157 12.8838C20.0532 13.3078 19.7567 13.7053 19.3902 14.0483C18.3667 15.0033 17.1572 15.5093 15.7562 15.4858C13.8112 15.4503 12.3297 14.5728 11.2932 12.9333L11.2587 12.8848Z" fill="#0F47AE"/>
<path fill-rule="evenodd" clip-rule="evenodd" d="M17.1916 10.4162L18.7386 9.29273C18.7816 9.26173 18.8316 9.23523 18.8666 9.19723C19.1066 8.93973 19.4131 8.95973 19.7446 8.98973C19.5181 9.15573 19.3061 9.31073 19.0931 9.46473C18.5226 9.87973 17.9551 10.2962 17.3816 10.7067C17.3131 10.7562 17.3131 10.7997 17.3351 10.8677C17.5344 11.4737 17.7326 12.0811 17.9296 12.6897C17.9441 12.7347 17.9696 12.7782 17.9601 12.8587C17.7716 12.6807 17.5266 12.6127 17.4401 12.3262C17.1546 11.3882 16.8406 10.4597 16.5371 9.52723L16.5176 9.46323C16.6301 9.46323 16.7326 9.46423 16.8361 9.46223C16.9026 9.46173 16.8986 9.51773 16.9101 9.55573C17.0046 9.83723 17.0946 10.1192 17.1916 10.4162Z" fill="#FBDC09"/>
<path fill-rule="evenodd" clip-rule="evenodd" d="M13.9922 13.1702C14.0547 12.9792 14.1072 12.8172 14.1587 12.6557C14.1707 12.6207 14.1941 12.5907 14.2252 12.5707C15.0632 11.9632 15.8997 11.3547 16.7402 10.7462C16.7522 10.7372 16.7687 10.7322 16.7872 10.7222C16.8147 10.8022 16.8362 10.8802 16.8682 10.9547C16.8997 11.0312 16.8882 11.0757 16.8162 11.1247C16.5952 11.2772 16.3792 11.4387 16.1617 11.5967C16.1382 11.6127 16.1102 11.6237 16.0992 11.6602C16.6407 12.0532 17.1767 12.4607 17.7322 12.8382C17.9752 13.0042 18.1437 13.1957 18.1922 13.4867C18.1972 13.5207 18.2357 13.5627 18.2062 13.5882C18.1647 13.6222 18.1332 13.5677 18.1057 13.5482C17.3751 13.0211 16.6471 12.4904 15.9217 11.9562C15.8232 11.8837 15.7612 11.8822 15.6612 11.9557C15.1182 12.3587 14.5687 12.7527 13.9947 13.1702" fill="#FBDC09"/>
<path fill-rule="evenodd" clip-rule="evenodd" d="M15.6663 11.3641C15.5698 11.4326 15.4788 11.5461 15.3833 11.5501C15.2968 11.5551 15.2033 11.4426 15.1133 11.3781C14.9358 11.2501 14.7588 11.1206 14.5668 10.9826L14.3483 11.6441C14.1818 12.1581 14.0138 12.6726 13.8503 13.1881C13.8288 13.2664 13.7789 13.3338 13.7103 13.3771C13.5928 13.4516 13.4898 13.5516 13.3388 13.6266L14.1828 11.0321C14.2693 10.7646 14.2693 10.7656 14.0448 10.6026L12.5823 9.54012C12.5568 9.52162 12.5248 9.51062 12.5098 9.46462C12.6923 9.46462 12.8703 9.46262 13.0473 9.46512C13.0723 9.46612 13.0988 9.48662 13.1213 9.50262L15.6413 11.3336C15.6478 11.3376 15.6518 11.3456 15.6653 11.3641" fill="#FBDC09"/>
<path fill-rule="evenodd" clip-rule="evenodd" d="M15.5364 6.87256C15.6019 7.07006 15.6539 7.23056 15.7089 7.39306C15.7199 7.42506 15.7129 7.45656 15.7024 7.48756C15.3794 8.48189 15.0561 9.47589 14.7324 10.4696C14.7304 10.4761 14.7239 10.4801 14.7114 10.4931C14.6344 10.4366 14.5574 10.3771 14.4769 10.3241C14.4184 10.2846 14.4414 10.2426 14.4569 10.1961C14.5394 9.94456 14.6164 9.69106 14.7039 9.44256C14.7359 9.35206 14.7244 9.32706 14.6229 9.32806C13.8929 9.33156 13.1629 9.32856 12.4324 9.33306C12.3393 9.33582 12.2483 9.30473 12.1764 9.24556C12.0689 9.16106 11.9564 9.08256 11.8164 8.98006H11.9809C12.8974 8.98006 13.8154 8.97806 14.7319 8.98206C14.8264 8.98256 14.8619 8.95456 14.8909 8.86506C15.0984 8.20906 15.3139 7.55706 15.5364 6.87256Z" fill="#FBDC09"/>
<path fill-rule="evenodd" clip-rule="evenodd" d="M18.91 9.00544C18.7765 9.10394 18.641 9.20044 18.507 9.30144C18.467 9.33144 18.424 9.32944 18.3795 9.32944C17.368 9.32944 16.3595 9.32944 15.3445 9.33044C15.264 9.33094 15.2375 9.31994 15.2685 9.23094C15.3495 8.98144 15.3455 8.97944 15.6085 8.97944H16.355C16.249 8.65144 16.1475 8.33394 16.045 8.01944C15.91 7.60494 15.7765 7.19094 15.6385 6.77894C15.6096 6.70258 15.6096 6.6183 15.6385 6.54194C15.6865 6.40944 15.7285 6.27444 15.775 6.12744C15.818 6.16694 15.821 6.21194 15.834 6.25144C16.119 7.12494 16.405 7.99844 16.6855 8.87394C16.713 8.95844 16.7515 8.98194 16.838 8.98194C17.486 8.97794 18.1355 8.97994 18.783 8.97994H18.901L18.908 9.00544" fill="#FBDC09"/>
<path fill-rule="evenodd" clip-rule="evenodd" d="M15.8753 13.3197V14.3452C15.8753 14.4057 15.8818 14.4537 15.7918 14.4572C15.6978 14.4587 15.6973 14.4117 15.6973 14.3432V12.2912C15.6973 12.2322 15.6913 12.1832 15.7823 12.1812C15.8758 12.1792 15.8763 12.2262 15.8763 12.2932C15.875 12.6352 15.8747 12.9774 15.8753 13.3197Z" fill="#F4D80E"/>
<path fill-rule="evenodd" clip-rule="evenodd" d="M13.9815 10.9184C13.977 10.9754 13.923 10.9684 13.8905 10.9799C13.3081 11.1695 12.7248 11.3587 12.1405 11.5474C12.0707 11.5689 12.0016 11.592 11.933 11.6169C11.872 11.6404 11.837 11.6454 11.8095 11.5624C11.782 11.4784 11.8235 11.4674 11.882 11.4489C12.5356 11.2369 13.1885 11.0245 13.8405 10.8119C13.931 10.7824 13.9855 10.8254 13.9815 10.9184ZM17.65 10.7864L17.7315 10.8119C18.3841 11.0245 19.037 11.2369 19.69 11.4489C19.7485 11.4669 19.7895 11.4779 19.763 11.5624C19.7355 11.6454 19.701 11.6369 19.64 11.6169L17.6695 10.9769C17.633 10.9649 17.5695 10.9659 17.5975 10.8934C17.613 10.8549 17.6105 10.8064 17.65 10.7864ZM14.722 8.66287C14.6995 8.70937 14.6535 8.72937 14.615 8.75587C14.572 8.78387 14.561 8.73387 14.546 8.71137C14.3095 8.38937 14.0755 8.06637 13.84 7.74287C13.6615 7.49537 13.484 7.24687 13.3 7.00337C13.252 6.93937 13.29 6.92187 13.3315 6.89187C13.3715 6.86187 13.4 6.83537 13.445 6.89787C13.857 7.47087 14.272 8.03887 14.686 8.60987C14.6973 8.62587 14.7093 8.64354 14.722 8.66287ZM18.306 6.95187C18.2865 6.97887 18.273 6.99987 18.257 7.01937L17.0365 8.69987C17.003 8.74837 16.9805 8.78237 16.9175 8.73037C16.867 8.68887 16.842 8.66587 16.891 8.59937C17.3055 8.03487 17.716 7.46737 18.1285 6.90137C18.1445 6.87937 18.154 6.83037 18.1995 6.86287C18.238 6.89037 18.2825 6.91087 18.306 6.95187Z" fill="#FADC09"/>
</svg>
