<svg width="96" height="32" viewBox="0 0 96 32" fill="none" xmlns="http://www.w3.org/2000/svg">
<g clip-path="url(#clip0_121_489)">
<rect width="96" height="32" fill="#FBF9F6"/>
<path d="M20.5012 24.8025C19.209 25.1875 17.8251 25.0226 16.6 23.9902L16.5922 23.9836C17.5296 23.6904 18.3521 23.197 19.0168 22.4786C19.8697 21.5566 20.4389 20.2896 20.6757 18.6695C20.8915 17.19 21.4013 16.0915 22.1222 15.3121C22.7929 14.587 23.6674 14.1157 24.7132 13.8841C25.7952 15.0158 26.1464 16.4342 26.0008 17.8421C25.8535 19.2659 25.2007 20.6837 24.2925 21.8431C24.1596 22.0127 24.0261 22.1817 23.8918 22.3501C22.9745 23.5012 21.7807 24.4206 20.5012 24.8019" fill="#524A45"/>
<path d="M23.9679 13.1919L23.9599 13.1852C22.7345 12.1531 21.3506 11.9879 20.0587 12.3732C18.7792 12.7546 17.5853 13.674 16.668 14.825C16.5338 14.9935 16.4003 15.1626 16.2674 15.3324C15.3589 16.4917 14.7064 17.9093 14.5591 19.3331C14.4133 20.7413 14.7644 22.1597 15.8467 23.2914C16.8925 23.0597 17.7667 22.5885 18.4377 21.8634C19.1586 21.084 19.6681 19.9855 19.8842 18.5059C20.121 16.8858 20.6899 15.6189 21.5431 14.6969C22.2078 13.9785 23.0303 13.4851 23.9679 13.1919Z" fill="#524A45"/>
<path d="M13.0287 16.7341C12.5893 17.9188 11.7465 18.85 10.4285 19.1563L10.4201 19.1582C10.7298 18.2908 10.8493 17.3915 10.7396 16.478C10.5988 15.3056 10.0844 14.1423 9.16539 13.0194C8.32581 11.9942 7.8885 10.9736 7.7694 9.98259C7.65863 9.06062 7.81999 8.13581 8.22715 7.22374C9.53303 7.08183 10.6349 7.65019 11.4656 8.5813C12.3056 9.523 12.8729 10.8365 13.1373 12.1887C13.1761 12.3866 13.214 12.5845 13.2512 12.7827C13.5055 14.1367 13.4633 15.5607 13.0283 16.7338" fill="#524A45"/>
<path d="M7.38578 7.3711L7.3772 7.3732C6.05931 7.67984 5.21624 8.61092 4.77722 9.79558C4.34227 10.9687 4.3 12.3927 4.55431 13.7467C4.59159 13.9449 4.62961 14.1429 4.66837 14.3408C4.93271 15.6932 5.49988 17.0064 6.33991 17.9481C7.17069 18.8795 8.27255 19.4479 9.57856 19.3058C9.98572 18.3937 10.147 17.4691 10.0363 16.5469C9.91722 15.5559 9.47977 14.5355 8.64032 13.5101C7.72129 12.3872 7.2068 11.2241 7.06614 10.0516C6.95647 9.138 7.07593 8.23875 7.38578 7.3711Z" fill="#524A45"/>
<g clip-path="url(#clip1_121_489)">
<rect width="19" height="5" transform="translate(38.1104 13.5)" fill="#FBF9F6"/>
<path d="M38.1104 13.5V18.5L43.1104 16L38.1104 13.5Z" fill="#9A8D7F" fill-opacity="0.7"/>
<path d="M45.1104 13.5V18.5L50.1104 16L45.1104 13.5Z" fill="#9A8D7F" fill-opacity="0.7"/>
<path d="M52.1104 13.5V18.5L57.1104 16L52.1104 13.5Z" fill="#9A8D7F" fill-opacity="0.7"/>
</g>
<path d="M73.1097 15.5967C70.069 16.548 68.1104 18.04 68.1104 19.7173C68.1104 22.5907 73.8557 24.92 80.9437 24.92C88.0317 24.92 93.777 22.5907 93.777 19.7173C93.777 18.04 91.8184 16.548 88.7784 15.5967" stroke="#524A45" stroke-linecap="round" stroke-linejoin="round"/>
<path d="M68.1104 19.8573C68.1104 22.7306 71.2317 26.4473 80.9437 26.4473C90.6557 26.4473 93.777 22.5906 93.777 19.7173" stroke="#524A45" stroke-linecap="round" stroke-linejoin="round"/>
<path d="M71.2314 8.66003C71.2314 12.7367 73.9514 20.7027 80.9434 20.7027C87.9354 20.7027 90.6548 12.7367 90.6548 8.6607" stroke="#524A45" stroke-linecap="round" stroke-linejoin="round"/>
<path d="M80.9438 11.7686C86.3072 11.7686 90.6551 10.3771 90.6551 8.66061C90.6551 6.94411 86.3072 5.55261 80.9438 5.55261C75.5803 5.55261 71.2324 6.94411 71.2324 8.66061C71.2324 10.3771 75.5803 11.7686 80.9438 11.7686Z" stroke="#524A45" stroke-linecap="round" stroke-linejoin="round"/>
<path d="M90.2115 9.59073C89.0755 8.29473 85.3561 7.34473 80.9435 7.34473C76.5308 7.34473 72.8115 8.29473 71.6748 9.59139M89.2081 14.7507C93.2348 15.4707 94.1101 13.1794 94.1101 11.4554C94.1101 9.73139 93.4488 8.66073 91.9261 8.66073C91.6773 8.66164 91.4319 8.71871 91.2082 8.82767C90.9845 8.93664 90.7883 9.0947 90.6341 9.29006" stroke="#524A45" stroke-linecap="round" stroke-linejoin="round"/>
</g>
<defs>
<clipPath id="clip0_121_489">
<rect width="96" height="32" fill="white"/>
</clipPath>
<clipPath id="clip1_121_489">
<rect width="19" height="5" fill="white" transform="translate(38.1104 13.5)"/>
</clipPath>
</defs>
</svg>
