<svg width="160" height="25" viewBox="0 0 160 25" fill="none" xmlns="http://www.w3.org/2000/svg">
<mask id="mask0_153_438" style="mask-type:luminance" maskUnits="userSpaceOnUse" x="15" y="5" width="13" height="17">
<path d="M25.4824 5.95904L15.8418 8.07373L17.4166 21.0191L27.0572 18.9044L25.4824 5.95904Z" fill="white"/>
</mask>
<g mask="url(#mask0_153_438)">
<path d="M20.9983 7.57429C21.9641 7.07171 23.0245 7.08497 24.0037 7.94343L24.0099 7.94898C23.31 8.32678 22.7066 8.88387 22.2335 9.6394C21.6264 10.6092 21.251 11.8788 21.1445 13.451C21.0476 14.8869 20.7097 15.9894 20.1965 16.8093C19.7192 17.5718 19.0754 18.1132 18.2901 18.4435C17.4153 17.4752 17.0836 16.1569 17.1303 14.7968C17.1776 13.4213 17.6098 11.9988 18.2481 10.7966C18.3415 10.6207 18.4354 10.4454 18.53 10.2705C19.1755 9.07538 20.0421 8.07202 20.9983 7.57429Z" fill="#F7F3ED"/>
<path d="M18.8877 19.027L18.8941 19.0325C19.8734 19.8907 20.9339 19.9042 21.8995 19.4014C22.8557 18.9037 23.7223 17.901 24.3678 16.7058C24.4624 16.5307 24.5563 16.3552 24.6496 16.1793C25.2882 14.9771 25.7202 13.5549 25.7675 12.1794C25.8144 10.819 25.4827 9.50078 24.6077 8.53247C23.8224 8.86286 23.1788 9.40415 22.7011 10.1668C22.1881 10.9865 21.8504 12.089 21.7533 13.5249C21.6468 15.0972 21.2715 16.3667 20.6642 17.3365C20.1912 18.0921 19.5878 18.6492 18.8877 19.027Z" fill="#F7F3ED"/>
</g>
<mask id="mask1_153_438" style="mask-type:luminance" maskUnits="userSpaceOnUse" x="112" y="6" width="12" height="15">
<path d="M121.594 6.25604L112.294 9.1897L114.611 20.9653L123.911 18.0317L121.594 6.25604Z" fill="white"/>
</mask>
<g mask="url(#mask1_153_438)">
<path d="M117.307 8.20526C118.221 7.6433 119.259 7.54731 120.268 8.23893L120.274 8.24342C119.612 8.66319 119.056 9.23849 118.638 9.98348C118.103 10.9395 117.812 12.1485 117.802 13.6091C117.794 14.9429 117.53 15.994 117.077 16.8022C116.656 17.5541 116.059 18.1189 115.311 18.5037C114.397 17.7001 113.994 16.5184 113.958 15.2595C113.922 13.9865 114.259 12.6308 114.811 11.4571C114.892 11.2854 114.973 11.1141 115.055 10.9433C115.614 9.77529 116.401 8.76177 117.307 8.20526Z" fill="#F7F3ED"/>
<path d="M115.931 18.9808L115.937 18.9852C116.946 19.6766 117.984 19.5808 118.898 19.0187C119.803 18.4622 120.591 17.4491 121.15 16.2812C121.232 16.1102 121.313 15.9388 121.394 15.767C121.946 14.5934 122.283 13.238 122.247 11.9648C122.211 10.7057 121.808 9.52393 120.894 8.72046C120.146 9.10525 119.549 9.66996 119.128 10.422C118.675 11.2302 118.411 12.2811 118.403 13.6151C118.393 15.0757 118.102 16.2847 117.567 17.2407C117.149 17.9857 116.593 18.5609 115.931 18.9808Z" fill="#F7F3ED"/>
</g>
<mask id="mask2_153_438" style="mask-type:luminance" maskUnits="userSpaceOnUse" x="25" y="6" width="12" height="16">
<path d="M35.1611 6.35772L25.5205 8.47241L27.0953 21.4177L36.7359 19.303L35.1611 6.35772Z" fill="white"/>
</mask>
<g mask="url(#mask2_153_438)">
<path d="M30.677 7.97639C31.6428 7.47381 32.7032 7.48707 33.6824 8.34553L33.6886 8.35108C32.9887 8.72887 32.3853 9.28604 31.9123 10.0416C31.3052 11.0112 30.9297 12.2809 30.8232 13.8532C30.7263 15.2891 30.3884 16.3916 29.8754 17.2113C29.3979 17.974 28.7541 18.5152 27.9688 18.8456C27.094 17.8773 26.7623 16.5589 26.809 15.1989C26.8564 13.8235 27.2885 12.4009 27.9269 11.1988C28.0202 11.0229 28.1142 10.8474 28.2087 10.6726C28.8542 9.4774 29.7208 8.47415 30.677 7.97639Z" fill="#F7F3ED"/>
<path d="M28.5674 19.4306L28.5739 19.4361C29.5532 20.2943 30.6136 20.3077 31.5792 19.8049C32.5355 19.3071 33.4021 18.3044 34.0476 17.1092C34.1421 16.9343 34.2359 16.7588 34.3294 16.5828C34.9679 15.3807 35.3999 13.9584 35.4472 12.583C35.4941 11.2226 35.1624 9.90421 34.2874 8.93604C33.5022 9.26629 32.8585 9.80758 32.3809 10.5703C31.8678 11.3901 31.5301 12.4925 31.433 13.9283C31.3265 15.5008 30.9513 16.7703 30.344 17.74C29.8709 18.4956 29.2674 19.0527 28.5674 19.4306Z" fill="#F7F3ED"/>
</g>
<path d="M8.04509 21.018C6.93193 21.018 5.88624 20.7755 4.90801 20.2907C3.94665 19.8056 3.09491 19.1343 2.35281 18.2762C1.61071 17.4184 1.02883 16.4298 0.607177 15.3107C0.202392 14.1917 0 13.0072 0 11.7575C0 10.4334 0.210825 9.19301 0.632475 8.03662C1.07099 6.88023 1.66973 5.8544 2.42871 4.95913C3.18768 4.06386 4.06471 3.36443 5.05981 2.86085C6.07177 2.35726 7.15962 2.10547 8.32338 2.10547C9.25101 2.10547 10.1955 2.18007 11.1569 2.32929C12.1182 2.45984 13.1049 2.65568 14.1168 2.9168C14.1675 2.9168 14.2181 3.13129 14.2686 3.56027C14.3361 3.97061 14.4036 4.46487 14.4711 5.04307C14.5386 5.6026 14.5891 6.12486 14.6229 6.60979C14.6734 7.07607 14.6988 7.37449 14.6988 7.50506C14.6988 7.65426 14.547 7.72888 14.2434 7.72888C13.9229 7.72888 13.6615 7.68225 13.4591 7.58898C13.3747 7.23462 13.2399 6.87091 13.0543 6.49787C12.8688 6.12485 12.5905 5.7052 12.2194 5.23891C11.8484 4.77263 11.334 4.39959 10.6762 4.11982C10.0184 3.82139 9.27631 3.67219 8.44988 3.67219C5.41399 3.67219 3.89605 6.15283 3.89605 11.1141C3.89605 12.4756 4.06471 13.772 4.40203 15.003C4.62129 15.805 4.95017 16.5417 5.3887 17.2131C5.84408 17.8846 6.39223 18.4255 7.03313 18.8357C7.6909 19.2461 8.43301 19.4513 9.25945 19.4513C10.0184 19.4513 10.5581 19.3021 10.8786 19.0036C11.0641 18.8357 11.1569 18.556 11.1569 18.1644V16.2059C11.1569 15.2174 11.0978 14.4993 10.9798 14.0517C10.8617 13.5481 10.3051 13.2964 9.31004 13.2964C9.27631 13.2964 9.24258 13.2218 9.20885 13.0725C9.19197 12.9232 9.19197 12.7648 9.20885 12.5969C9.22572 12.4104 9.25101 12.2984 9.28474 12.2612C9.95938 12.2984 10.634 12.3358 11.3087 12.373C11.9833 12.4104 12.5652 12.4291 13.0543 12.4291C13.3072 12.4291 14.4457 12.373 16.4696 12.2612C16.5203 12.4291 16.5455 12.6156 16.5455 12.8207C16.5455 13.1564 16.5118 13.3243 16.4444 13.3243C16.0564 13.3243 15.6095 13.4641 15.1036 13.744C14.8336 13.8745 14.6988 14.6112 14.6988 15.9541V17.5768C14.6988 17.9125 14.724 18.1644 14.7746 18.3322C14.8252 18.5001 14.8505 18.6027 14.8505 18.6399C14.8505 18.9571 14.6734 19.2182 14.3193 19.4233C13.6952 19.7777 13.2145 20.0295 12.8772 20.1786C12.523 20.3465 11.899 20.533 11.0051 20.7383C10.128 20.9248 9.14138 21.018 8.04509 21.018Z" fill="#F7F3ED"/>
<path d="M42.8438 19.5804C41.8377 19.5804 40.8873 19.3289 39.9929 18.8261C39.1171 18.3234 38.3998 17.6158 37.8408 16.7034C37.3005 15.7908 37.0303 14.7202 37.0303 13.4912C37.0303 12.2436 37.3191 11.1262 37.8968 10.1393C38.4929 9.15239 39.2942 8.3703 40.3005 7.79303C41.3252 7.21576 42.4712 6.92714 43.7382 6.92714C44.5208 6.92714 45.1729 7.01093 45.6947 7.17852C45.7505 7.17852 45.7786 7.04818 45.7786 6.78748V4.58085C45.7786 3.79875 45.7226 3.12838 45.6108 2.56975C45.5363 2.2718 45.0519 2.12284 44.1575 2.12284H43.9059C43.7942 2.12284 43.7382 1.93662 43.7382 1.56419C43.7382 1.24763 43.7942 1.08935 43.9059 1.08935C44.9866 0.996249 46.0021 0.837963 46.9524 0.614507C47.9214 0.391051 48.6107 0.214146 49.0207 0.0838049L49.3002 0H49.3561C49.4307 0 49.5051 0.0558603 49.5797 0.167595C49.6542 0.279316 49.7009 0.381742 49.7195 0.474842C49.5145 1.35005 49.4119 2.29042 49.4119 3.29598V15.3067C49.4119 15.7165 49.4307 16.1634 49.4679 16.6475C49.5051 17.113 49.589 17.411 49.7195 17.5413C49.8686 17.653 50.0361 17.7182 50.2225 17.7368C50.4089 17.7368 50.6511 17.7554 50.9493 17.7927L51.2288 17.8206C51.2846 17.8392 51.3126 17.951 51.3126 18.1558C51.3126 18.6213 51.2567 18.8541 51.1449 18.8541C50.6791 18.8727 50.1388 18.9286 49.5238 19.0217C48.9275 19.1148 48.3405 19.2079 47.763 19.301C47.1854 19.3941 46.7195 19.4687 46.3654 19.5244L45.9463 19.5804C45.8344 19.5989 45.7786 19.4406 45.7786 19.1056V18.5189C45.7786 18.3699 45.7412 18.3327 45.6668 18.4072C44.8842 19.1894 43.9431 19.5804 42.8438 19.5804ZM43.5705 17.8765C44.204 17.8765 44.7258 17.6996 45.1357 17.3458C45.5642 16.9734 45.7786 16.5265 45.7786 16.0051V10.9214C45.7786 10.6979 45.76 10.4838 45.7226 10.279C45.6854 10.0742 45.6015 9.8135 45.471 9.49687C45.3407 9.18032 45.1077 8.92893 44.7724 8.74271C44.4556 8.53788 44.055 8.43547 43.5705 8.43547C42.6947 8.43547 42.0519 8.78926 41.642 9.49687C41.2507 10.1859 41.055 11.2938 41.055 12.8208C41.055 16.1913 41.8935 17.8765 43.5705 17.8765Z" fill="#F7F3ED"/>
<path d="M56.7905 19.6186C56.7304 19.5514 56.7003 19.4088 56.7003 19.1908C56.7003 18.8552 56.7304 18.6874 56.7905 18.6874C56.9108 18.6874 57.0838 18.6622 57.3094 18.6119C57.5349 18.5615 57.7455 18.4945 57.9411 18.4106C58.1366 18.3098 58.2494 18.2176 58.2794 18.1337C58.3696 17.7479 58.4148 17.0096 58.4148 15.9191V6.40619C58.4148 5.46664 58.3696 4.81231 58.2794 4.4432C58.2494 4.34253 58.129 4.24187 57.9185 4.14121C57.7229 4.02375 57.5124 3.93148 57.2868 3.86438C57.0612 3.78048 56.8882 3.73855 56.768 3.73855C56.7078 3.73855 56.6777 3.58754 56.6777 3.28554C56.6777 3.0171 56.7003 2.85771 56.7454 2.80737C57.347 2.84093 57.9185 2.87449 58.46 2.90805C59.0163 2.92483 59.5503 2.93322 60.0616 2.93322H63.987C65.2052 2.93322 66.2955 3.15132 67.2581 3.58754C68.2356 4.02375 69.0629 4.61936 69.7396 5.37435C70.4165 6.12936 70.9278 6.9934 71.2737 7.9665C71.6347 8.93961 71.8151 9.97139 71.8151 11.062C71.8151 12.6727 71.4993 14.1239 70.8676 15.4158C70.2359 16.6909 69.3336 17.706 68.1604 18.4609C66.9874 19.216 65.5887 19.5934 63.9644 19.5934C63.814 19.5934 63.5884 19.5851 63.2877 19.5683C63.0019 19.5683 62.641 19.5599 62.2048 19.5431C61.7687 19.5095 61.37 19.4844 61.0092 19.4675C60.6481 19.4508 60.3399 19.4508 60.0842 19.4675L56.7905 19.6186ZM64.3254 18.1841C65.5887 18.1841 66.5663 17.5801 67.2581 16.3721C67.95 15.1641 68.2958 13.3605 68.2958 10.9613C68.2958 9.7197 68.1304 8.60405 67.7995 7.61418C67.4687 6.60751 66.9949 5.81058 66.3783 5.22335C65.7767 4.63614 65.0398 4.34253 64.1674 4.34253H64.0546C62.7762 4.34253 62.0469 4.47675 61.8663 4.7452C61.6709 5.03042 61.5731 5.55891 61.5731 6.33068V16.0953C61.5731 17.1858 61.6408 17.773 61.7761 17.8569C62.1071 18.0751 62.9568 18.1841 64.3254 18.1841Z" fill="#F7F3ED"/>
<path d="M75.6302 19.5791C74.7591 19.5791 74.0622 19.3417 73.5395 18.8669C73.0327 18.3762 72.7793 17.7669 72.7793 17.0386C72.7793 16.4214 72.9693 15.8833 73.3494 15.4242C73.7454 14.9653 74.2364 14.6012 74.8224 14.3321C75.0442 14.2372 75.2501 14.158 75.4401 14.0946C75.6302 14.0155 75.8043 13.9443 75.9628 13.8809C76.5646 13.691 77.0476 13.5565 77.412 13.4774C77.7763 13.3824 78.0455 13.3033 78.2198 13.24C78.3623 13.1925 78.4336 13.0738 78.4336 12.8839V12.0291C78.4336 10.7313 78.0376 10.0823 77.2457 10.0823C76.3271 10.0823 75.8677 10.6126 75.8677 11.673C75.8677 12.0212 75.7252 12.2824 75.4401 12.4564C75.1549 12.6147 74.8383 12.6939 74.4898 12.6939C73.7613 12.6939 73.2624 12.4564 72.9931 11.9816C72.9931 11.5702 73.1356 11.1744 73.4207 10.7945C73.7216 10.4146 74.1097 10.0744 74.5848 9.77365C75.0758 9.45702 75.6222 9.2117 76.2241 9.03759C76.8418 8.84764 77.4595 8.75269 78.0771 8.75269C79.1859 8.75269 80.0332 9.06133 80.6192 9.67869C81.2211 10.2801 81.522 11.3801 81.522 12.9788V16.825C81.522 17.3631 81.712 17.6323 82.0921 17.6323C82.3772 17.6323 82.6465 17.5293 82.8999 17.3237C83.0107 17.3869 83.0662 17.5056 83.0662 17.6798C83.0662 18.0912 83.0107 18.3841 82.8999 18.5581C82.6781 18.7639 82.3139 18.9856 81.8071 19.223C81.3161 19.4445 80.8488 19.5554 80.4054 19.5554C80.0253 19.5554 79.661 19.4445 79.3125 19.223C78.964 18.9856 78.7345 18.7165 78.6236 18.4157C78.6077 18.4157 78.5206 18.4712 78.3623 18.5819C78.2039 18.6927 78.0851 18.7798 78.0058 18.8432C77.6891 19.0488 77.3248 19.223 76.9131 19.3654C76.5012 19.5079 76.0737 19.5791 75.6302 19.5791ZM77.1269 17.8697C77.5386 17.8697 77.8554 17.7747 78.0771 17.5848C78.3148 17.379 78.4336 17.1336 78.4336 16.8487V14.4508L77.1982 14.8782C76.8656 14.989 76.5566 15.1552 76.2716 15.3767C76.0024 15.5984 75.8677 15.8911 75.8677 16.2552C75.8677 16.825 75.9865 17.2366 76.2241 17.4898C76.4775 17.7431 76.7784 17.8697 77.1269 17.8697ZM84.753 24.5887C84.2777 24.5887 83.8898 24.4621 83.5888 24.2088C83.3038 23.9556 83.1612 23.6628 83.1612 23.3305C83.1612 22.8555 83.3434 22.4835 83.7076 22.2145C85.7349 22.2145 87.0416 21.5971 87.6276 20.3627L88.364 18.7957L84.7055 10.6758C84.547 10.3275 84.3016 10.0901 83.9689 9.96357C83.6522 9.83686 83.375 9.77365 83.1375 9.77365C83.0741 9.77365 83.0425 9.65495 83.0425 9.4174C83.0425 9.1009 83.0582 8.92679 83.09 8.89514C83.1532 8.89514 83.3038 8.90305 83.5413 8.91888C83.7948 8.93471 84.1432 8.95845 84.5867 8.9901C85.0302 9.02176 85.4024 9.0455 85.7032 9.06133C86.02 9.07716 86.2734 9.08507 86.4635 9.08507C86.701 9.08507 87.0416 9.06924 87.4851 9.03759C87.9286 9.00593 88.3562 8.97428 88.7679 8.94262C89.1956 8.91097 89.4648 8.89514 89.5757 8.89514C89.6232 9.03759 89.6469 9.20379 89.6469 9.39372C89.6469 9.64694 89.6153 9.77365 89.5519 9.77365C89.4253 9.77365 89.2431 9.80525 89.0056 9.86861C88.7679 9.93182 88.5541 10.011 88.364 10.106C88.174 10.1851 88.079 10.2801 88.079 10.3909C88.1106 10.6283 88.2769 11.1427 88.5778 11.9341C88.8946 12.7256 89.354 13.8256 89.9558 15.2343C90.4942 14.063 90.9061 13.1609 91.1912 12.5276C91.4921 11.8788 91.6663 11.4988 91.7138 11.3881C91.8088 11.1664 91.8563 10.929 91.8563 10.6758C91.8563 10.47 91.7059 10.2722 91.405 10.0823C91.104 9.87647 90.6923 9.77365 90.1695 9.77365C90.1063 9.77365 90.0745 9.63121 90.0745 9.34624C90.0745 9.23544 90.0745 9.14838 90.0745 9.08507C90.0904 9.00593 90.1063 8.94262 90.122 8.89514C90.2488 8.89514 90.5101 8.91097 90.9061 8.94262C91.3178 8.97428 91.7455 9.00593 92.189 9.03759C92.6325 9.06924 92.9809 9.08507 93.2342 9.08507C93.4085 9.08507 93.6064 9.07716 93.8283 9.06133C94.0499 9.02967 94.2955 9.00593 94.5647 8.9901L95.7763 8.89514C95.8397 9.00593 95.8713 9.14048 95.8713 9.29875C95.8713 9.61533 95.8397 9.77365 95.7763 9.77365C95.6179 9.77365 95.3962 9.81312 95.1112 9.89235C94.8418 9.95556 94.5727 10.0585 94.3034 10.201C94.0499 10.3275 93.8758 10.5017 93.7807 10.7232L89.3619 20.2914C88.0315 23.1563 86.4951 24.5887 84.753 24.5887Z" fill="#F7F3ED"/>
<path d="M107.09 20.6681C106.112 20.6681 105.194 20.452 104.334 20.0197C103.475 19.5873 102.719 18.997 102.067 18.2488C101.415 17.4838 100.904 16.6109 100.533 15.6298C100.163 14.632 99.9775 13.5762 99.9775 12.462C99.9775 11.2815 100.163 10.1757 100.533 9.14481C100.904 8.09716 101.415 7.1826 102.067 6.40107C102.734 5.60291 103.512 4.97935 104.401 4.53038C105.305 4.08141 106.275 3.85693 107.313 3.85693C108.128 3.85693 108.957 3.92345 109.802 4.05648C110.647 4.17288 111.514 4.34747 112.403 4.58027C112.492 4.61352 112.588 5.17057 112.692 6.25141C112.751 6.86666 112.795 7.34889 112.825 7.69808C112.869 8.04728 112.855 8.29671 112.78 8.44636C112.706 8.57939 112.529 8.64589 112.247 8.64589L111.891 8.57107C111.817 8.27176 111.699 7.95582 111.536 7.62326C111.373 7.29068 111.121 6.93318 110.78 6.55073C110.454 6.16828 109.995 5.86065 109.402 5.62786C108.809 5.37843 108.15 5.25372 107.424 5.25372C104.771 5.25372 103.445 7.48192 103.445 11.9383C103.445 13.3185 103.623 14.5739 103.978 15.7046C104.349 16.8188 104.882 17.7 105.579 18.3486C106.29 18.997 107.142 19.3212 108.135 19.3212C109.232 19.3212 110.18 18.8723 110.98 17.9744C111.217 17.7083 111.395 17.4091 111.514 17.0765C111.647 16.7273 111.743 16.4196 111.802 16.1536C111.877 15.8875 111.943 15.7546 112.003 15.7546C112.61 15.7546 112.943 15.8377 113.003 16.0039C113.003 16.1204 112.966 16.3698 112.892 16.7522C112.832 17.118 112.751 17.5254 112.647 17.9744C112.558 18.4067 112.462 18.7891 112.358 19.1217C112.254 19.4377 112.166 19.6123 112.091 19.6455C110.402 20.3273 108.735 20.6681 107.09 20.6681Z" fill="#F7F3ED"/>
<path d="M132.498 19.5028C132.438 19.4431 132.408 19.2868 132.408 19.0335C132.408 18.7951 132.438 18.676 132.498 18.676C132.617 18.676 132.78 18.6461 132.989 18.5866C133.214 18.5121 133.421 18.4302 133.616 18.3408C133.825 18.2514 133.937 18.1769 133.951 18.1174C134.055 17.7002 134.107 17.1341 134.107 16.419V11.3019C134.107 11.1976 134.07 11.1456 133.995 11.1456H132.498C132.453 11.1456 132.431 11.1008 132.431 11.0114C132.431 10.8773 132.468 10.721 132.543 10.5422C132.631 10.3486 132.752 10.1772 132.9 10.0282C133.049 9.87921 133.205 9.8047 133.37 9.8047H133.995C134.07 9.8047 134.107 9.76008 134.107 9.67069V9.51424C134.107 8.47148 134.324 7.52552 134.757 6.67638C135.189 5.82725 135.777 5.14943 136.522 4.64294C137.282 4.12154 138.132 3.86084 139.071 3.86084C139.728 3.86084 140.293 3.93532 140.771 4.0843C141.262 4.23327 141.568 4.41204 141.687 4.62059C141.733 4.90364 141.754 5.20158 141.754 5.51441C141.754 5.84215 141.658 6.14009 141.464 6.40824C141.271 6.66148 140.994 6.78812 140.637 6.78812C140.323 6.78812 140.056 6.65403 139.831 6.38589C139.578 6.10285 139.347 5.84215 139.138 5.6038C138.945 5.36544 138.699 5.24627 138.4 5.24627C137.923 5.24627 137.573 5.58889 137.35 6.27416C137.126 6.95943 137.015 7.80112 137.015 8.79921V9.71546C137.015 9.78982 137.052 9.82715 137.126 9.82715H139.608C139.682 9.82715 139.719 9.87921 139.719 9.98346C139.719 10.4006 139.631 10.788 139.452 11.1456H137.149C137.059 11.1456 137.015 11.1902 137.015 11.2796V16.0839C137.015 17.0671 137.066 17.7449 137.171 18.1174C137.201 18.1769 137.312 18.2514 137.507 18.3408C137.7 18.4302 137.902 18.5121 138.109 18.5866C138.334 18.6461 138.49 18.676 138.58 18.676C138.609 18.676 138.632 18.7355 138.646 18.8548C138.662 18.9739 138.669 19.1005 138.669 19.2346C138.669 19.3688 138.655 19.458 138.625 19.5028C138.534 19.5028 138.363 19.4879 138.109 19.458C137.856 19.4431 137.558 19.4282 137.215 19.4134C136.887 19.3836 136.574 19.3612 136.276 19.3463C135.979 19.3314 135.74 19.324 135.561 19.324C135.382 19.324 135.136 19.3314 134.822 19.3463C134.525 19.3612 134.211 19.3836 133.884 19.4134C133.556 19.4282 133.265 19.4431 133.012 19.458C132.759 19.4879 132.587 19.5028 132.498 19.5028ZM145.422 19.5698C144.512 19.5698 143.67 19.3389 142.895 18.8771C142.135 18.4153 141.524 17.7971 141.062 17.0224C140.614 16.2478 140.39 15.3986 140.39 14.475C140.39 13.5216 140.592 12.6649 140.994 11.9053C141.412 11.1456 141.986 10.5422 142.716 10.0953C143.447 9.64838 144.289 9.42486 145.243 9.42486C146.182 9.42486 146.979 9.64838 147.636 10.0953C148.305 10.5273 148.813 11.0711 149.155 11.7265C149.513 12.367 149.692 13.015 149.692 13.6706C149.692 14.0132 149.618 14.2366 149.469 14.3409C149.334 14.4451 149.058 14.4973 148.642 14.4973H143.589C143.499 14.4973 143.454 14.5495 143.454 14.6538C143.454 15.1901 143.55 15.6965 143.745 16.1733C143.954 16.65 144.251 17.0372 144.639 17.3353C145.041 17.6332 145.526 17.7822 146.093 17.7822C146.6 17.7822 147.069 17.7077 147.501 17.5587C147.799 17.4693 148.031 17.3873 148.194 17.3128C148.358 17.2385 148.507 17.1565 148.642 17.0671C148.791 16.9629 148.962 16.8362 149.155 16.6873C149.29 16.7468 149.357 16.8884 149.357 17.1117C149.357 17.3054 149.327 17.4544 149.267 17.5587C149.178 17.7971 148.939 18.0726 148.552 18.3854C148.18 18.6983 147.717 18.9739 147.166 19.2123C146.628 19.4506 146.047 19.5698 145.422 19.5698ZM143.61 13.2683H146.451C146.658 13.2683 146.763 13.1269 146.763 12.8437C146.763 12.2777 146.607 11.7711 146.293 11.3243C145.996 10.8773 145.608 10.6539 145.131 10.6539C144.699 10.6539 144.356 10.8104 144.103 11.1231C143.864 11.4212 143.692 11.7562 143.589 12.1286C143.499 12.5012 143.454 12.8065 143.454 13.0449C143.454 13.1938 143.506 13.2683 143.61 13.2683ZM155.73 19.5698C154.819 19.5698 153.978 19.3389 153.202 18.8771C152.443 18.4153 151.832 17.7971 151.369 17.0224C150.921 16.2478 150.698 15.3986 150.698 14.475C150.698 13.5216 150.9 12.6649 151.302 11.9053C151.72 11.1456 152.294 10.5422 153.024 10.0953C153.755 9.64838 154.596 9.42486 155.551 9.42486C156.489 9.42486 157.287 9.64838 157.943 10.0953C158.615 10.5273 159.121 11.0711 159.463 11.7265C159.821 12.367 160 13.015 160 13.6706C160 14.0132 159.925 14.2366 159.777 14.3409C159.642 14.4451 159.367 14.4973 158.949 14.4973H153.896C153.806 14.4973 153.762 14.5495 153.762 14.6538C153.762 15.1901 153.859 15.6965 154.052 16.1733C154.261 16.65 154.559 17.0372 154.947 17.3353C155.349 17.6332 155.834 17.7822 156.401 17.7822C156.907 17.7822 157.377 17.7077 157.809 17.5587C158.107 17.4693 158.338 17.3873 158.502 17.3128C158.666 17.2385 158.815 17.1565 158.949 17.0671C159.098 16.9629 159.27 16.8362 159.463 16.6873C159.598 16.7468 159.665 16.8884 159.665 17.1117C159.665 17.3054 159.635 17.4544 159.575 17.5587C159.486 17.7971 159.247 18.0726 158.859 18.3854C158.487 18.6983 158.025 18.9739 157.474 19.2123C156.937 19.4506 156.355 19.5698 155.73 19.5698ZM153.918 13.2683H156.759C156.966 13.2683 157.07 13.1269 157.07 12.8437C157.07 12.2777 156.915 11.7711 156.601 11.3243C156.303 10.8773 155.916 10.6539 155.439 10.6539C155.007 10.6539 154.664 10.8104 154.41 11.1231C154.171 11.4212 154.001 11.7562 153.896 12.1286C153.806 12.5012 153.762 12.8065 153.762 13.0449C153.762 13.1938 153.813 13.2683 153.918 13.2683Z" fill="#F7F3ED"/>
<path d="M123.935 19.5028C123.875 19.4431 123.846 19.2868 123.846 19.0335C123.846 18.7951 123.875 18.676 123.935 18.676C124.054 18.676 124.218 18.6461 124.427 18.5866C124.651 18.5121 124.859 18.4302 125.053 18.3408C125.262 18.2514 125.374 18.1769 125.388 18.1174C125.493 17.7002 125.545 17.1341 125.545 16.419V11.3019C125.545 11.1976 125.508 11.1456 125.433 11.1456H123.935C123.89 11.1456 123.868 11.1008 123.868 11.0114C123.868 10.8773 123.905 10.721 123.98 10.5422C124.069 10.3486 124.189 10.1772 124.338 10.0282C124.487 9.87921 124.643 9.8047 124.807 9.8047H125.433C125.508 9.8047 125.545 9.76008 125.545 9.67069V9.51424C125.545 8.47148 125.761 7.52552 126.193 6.67639C126.626 5.82725 127.215 5.14943 127.96 4.64294C128.72 4.12154 129.57 3.86084 130.509 3.86084C131.165 3.86084 131.731 3.93532 132.209 4.0843C132.699 4.23327 133.006 4.41204 133.124 4.62059C133.17 4.90364 133.192 5.20158 133.192 5.51441C133.192 5.84215 133.096 6.14009 132.901 6.40824C132.708 6.66148 132.432 6.78812 132.074 6.78812C131.761 6.78812 131.493 6.65403 131.268 6.38589C131.015 6.10285 130.785 5.84215 130.576 5.6038C130.383 5.36544 130.136 5.24627 129.837 5.24627C129.361 5.24627 129.01 5.58889 128.787 6.27416C128.564 6.95943 128.452 7.80112 128.452 8.79921V9.71546C128.452 9.78982 128.489 9.82715 128.564 9.82715H131.045C131.12 9.82715 131.157 9.87921 131.157 9.98346C131.157 10.4006 131.068 10.788 130.889 11.1456H128.587C128.497 11.1456 128.452 11.1902 128.452 11.2796V16.0839C128.452 17.0671 128.504 17.7449 128.608 18.1174C128.638 18.1769 128.75 18.2514 128.944 18.3408C129.138 18.4302 129.339 18.5121 129.547 18.5866C129.772 18.6461 129.928 18.676 130.018 18.676C130.046 18.676 130.069 18.7355 130.084 18.8548C130.099 18.9739 130.106 19.1005 130.106 19.2346C130.106 19.3688 130.092 19.458 130.062 19.5028C129.972 19.5028 129.8 19.4879 129.547 19.458C129.294 19.4431 128.996 19.4282 128.653 19.4134C128.325 19.3836 128.012 19.3612 127.714 19.3463C127.416 19.3314 127.177 19.324 126.998 19.324C126.82 19.324 126.574 19.3314 126.261 19.3463C125.962 19.3612 125.649 19.3836 125.321 19.4134C124.994 19.4282 124.703 19.4431 124.449 19.458C124.196 19.4879 124.025 19.5028 123.935 19.5028Z" fill="#F7F3ED"/>
</svg>
