<svg width="32" height="22" viewBox="0 0 32 22" fill="none" xmlns="http://www.w3.org/2000/svg">
<path d="M0 7H32V15H0V7Z" fill="#E6E7E8"/>
<path d="M27 0H5C1.6865 0 0 2.4625 0 5.5V7H32V5.5C32 2.4625 30.3135 0 27 0ZM0 16.5C0 19.5375 1.6865 22 5 22H27C30.3135 22 32 19.5375 32 16.5V15H0V16.5ZM21.665 8.8315L20.695 8.8325L20.3905 7.852L20.095 8.8325L19.12 8.8315L19.9075 9.4295L19.605 10.404L20.392 9.798L21.18 10.404L20.8775 9.4295L21.665 8.8315ZM21.665 12.2705L20.695 12.2725L20.3905 11.2915L20.095 12.2725L19.12 12.2705L19.9075 12.869L19.605 13.844L20.392 13.2385L21.18 13.844L20.8775 12.869L21.665 12.2705ZM12.987 8.8315L12.015 8.8325L11.7165 7.852L11.4165 8.8325L10.446 8.8315L11.232 9.4295L10.9285 10.404L11.7175 9.798L12.505 10.404L12.2015 9.4295L12.987 8.8315ZM17.303 10.665H16.3335L16.03 9.686L15.733 10.665H14.762L15.55 11.2635L15.245 12.2385L16.035 11.635L16.823 12.2385L16.52 11.2635L17.303 10.665ZM12.987 12.2705L12.015 12.2725L11.7165 11.2915L11.4165 12.2725L10.446 12.2705L11.232 12.869L10.9285 13.844L11.7175 13.2385L12.505 13.844L12.2015 12.869L12.987 12.2705Z" fill="#1B75BB"/>
</svg>
