<svg width="16" height="16" viewBox="0 0 16 16" fill="none" xmlns="http://www.w3.org/2000/svg">
<path fill-rule="evenodd" clip-rule="evenodd" d="M16 8C16 10.1217 15.1571 12.1566 13.6569 13.6569C12.1566 15.1571 10.1217 16 8 16C5.87827 16 3.84344 15.1571 2.34315 13.6569C0.842855 12.1566 0 10.1217 0 8C0 5.87827 0.842855 3.84344 2.34315 2.34315C3.84344 0.842855 5.87827 0 8 0C10.1217 0 12.1566 0.842855 13.6569 2.34315C15.1571 3.84344 16 5.87827 16 8ZM6.94 4.94C6.87033 5.00967 6.78763 5.06493 6.6966 5.10263C6.60558 5.14033 6.50802 5.15974 6.4095 5.15974C6.31098 5.15974 6.21342 5.14033 6.1224 5.10263C6.03137 5.06493 5.94867 5.00967 5.879 4.94C5.80933 4.87033 5.75407 4.78763 5.71637 4.6966C5.67867 4.60558 5.65926 4.50802 5.65926 4.4095C5.65926 4.31098 5.67867 4.21342 5.71637 4.1224C5.75407 4.03137 5.80933 3.94867 5.879 3.879C6.2052 3.55275 6.60224 3.30612 7.03927 3.1583C7.4763 3.01047 7.94153 2.96544 8.3988 3.02669C8.85607 3.08794 9.29305 3.25383 9.67577 3.51145C10.0585 3.76908 10.3766 4.11151 10.6055 4.5121C10.8343 4.9127 10.9677 5.36068 10.9952 5.82121C11.0227 6.28174 10.9436 6.74242 10.7641 7.16741C10.5846 7.59241 10.3095 7.97028 9.96016 8.27164C9.61084 8.573 9.19672 8.78974 8.75 8.905V9.25C8.75 9.44891 8.67098 9.63968 8.53033 9.78033C8.38968 9.92098 8.19891 10 8 10C7.80109 10 7.61032 9.92098 7.46967 9.78033C7.32902 9.63968 7.25 9.44891 7.25 9.25V8.75C7.25 8.03 7.82 7.578 8.331 7.463C8.55803 7.41192 8.77007 7.30871 8.95034 7.16155C9.1306 7.01438 9.27416 6.82729 9.36964 6.61507C9.46513 6.40286 9.50993 6.17133 9.5005 5.93881C9.49107 5.70629 9.42768 5.47916 9.31532 5.27537C9.20297 5.07158 9.04474 4.89672 8.85315 4.76464C8.66156 4.63255 8.44186 4.54685 8.21144 4.51432C7.98101 4.48178 7.74618 4.50331 7.52551 4.57719C7.30484 4.65107 7.10438 4.77528 6.94 4.94ZM8 13C8.26522 13 8.51957 12.8946 8.70711 12.7071C8.89464 12.5196 9 12.2652 9 12C9 11.7348 8.89464 11.4804 8.70711 11.2929C8.51957 11.1054 8.26522 11 8 11C7.73478 11 7.48043 11.1054 7.29289 11.2929C7.10536 11.4804 7 11.7348 7 12C7 12.2652 7.10536 12.5196 7.29289 12.7071C7.48043 12.8946 7.73478 13 8 13Z" fill="#F7F3ED"/>
</svg>
