<svg width="14" height="13" viewBox="0 0 14 13" fill="none" xmlns="http://www.w3.org/2000/svg">
<path d="M13.0667 12.0714V6.84386C12.7531 6.9604 12.4224 7.0249 12.0878 7.0348C12.0534 7.0348 12.0208 7.03625 11.9887 7.03625C11.4032 7.03782 10.8289 6.87704 10.3302 6.57196C9.83163 6.87699 9.25746 7.03776 8.67212 7.03625C8.0892 7.03703 7.51789 6.87409 7.02392 6.56616C6.52306 6.87528 5.94498 7.03816 5.35558 7.03625C4.76865 7.03702 4.19359 6.87177 3.69746 6.55978C3.20133 6.87177 2.62627 7.03702 2.03933 7.03625C2.00754 7.03625 1.97546 7.03625 1.94104 7.0348H1.93929C1.59496 7.0246 1.25484 6.95651 0.933333 6.83341V12.0714H0V13H14V12.0714H13.0667ZM6.06667 10.2143H3.26667V8.00893C3.26667 7.97814 3.27896 7.94862 3.30084 7.92685C3.32272 7.90509 3.35239 7.89286 3.38333 7.89286H5.95C5.98094 7.89286 6.01062 7.90509 6.0325 7.92685C6.05438 7.94862 6.06667 7.97814 6.06667 8.00893V10.2143ZM10.7333 12.0714H8.4V8.00893C8.4 7.97814 8.41229 7.94862 8.43417 7.92685C8.45605 7.90509 8.48572 7.89286 8.51667 7.89286H10.6167C10.6476 7.89286 10.6773 7.90509 10.6992 7.92685C10.721 7.94862 10.7333 7.97814 10.7333 8.00893V12.0714ZM13.9 4.01259L12.5385 0.928571C12.1333 0 12.1333 0 11.2 0H2.8C1.86667 0 1.86667 0 1.46008 0.928571L0.0985833 4.01259C-0.163917 4.57583 0.182875 5.15415 0.183167 5.15444L0.195125 5.17359C0.207375 5.19275 0.228083 5.22437 0.242375 5.24237C0.245292 5.24614 0.247917 5.2502 0.250542 5.25397L0.403375 5.4394L0.55825 5.58855L0.5705 5.599C0.656612 5.67209 0.74871 5.7379 0.845833 5.79574V5.79719C1.16326 5.98849 1.5249 6.09513 1.89583 6.10681H1.96788C2.52912 6.10785 3.06992 5.89726 3.48133 5.51746C3.54076 5.4627 3.59695 5.40456 3.64963 5.34335C3.70249 5.40449 3.75877 5.46262 3.81821 5.51746C4.22963 5.89726 4.77042 6.10785 5.33167 6.10681C6.01067 6.10681 6.61704 5.81663 7.01254 5.36511C7.01314 5.36456 7.01392 5.36425 7.01473 5.36425C7.01554 5.36425 7.01632 5.36456 7.01692 5.36511L7.182 5.51775C7.59352 5.89757 8.13441 6.10815 8.69575 6.1071C9.37504 6.1071 9.98229 5.81692 10.3775 5.36395C10.773 5.81692 11.38 6.1071 12.0595 6.1071H12.1322C12.4938 6.09367 12.8456 5.98665 13.153 5.79661C13.1807 5.78007 13.2072 5.76266 13.2341 5.74525C13.4414 5.60614 13.6218 5.43097 13.7667 5.22815L13.825 5.14109C13.8512 5.0819 14.152 4.55203 13.9 4.01259Z" fill="#F7F3ED"/>
</svg>
