<svg width="12" height="16" viewBox="0 0 12 16" fill="none" xmlns="http://www.w3.org/2000/svg">
<path d="M10.41 0.44C10.3477 0.308068 10.2523 0.197122 10.1345 0.119459C10.0167 0.041795 9.881 0.000447764 9.7425 0H2.2425C1.9575 0 1.7025 0.168 1.575 0.44L1.035 1.6H0V3.2H12V1.6H10.965L10.425 0.44H10.41ZM1.4925 15.264C1.5225 15.68 1.845 16 2.2425 16H9.7425C10.1325 16 10.4625 15.68 10.4925 15.264L11.3025 4H0.6825L1.4925 15.264ZM9.5625 7.2L9.2175 12H2.7675L2.4225 7.2H9.57H9.5625Z" fill="#9A8D7F"/>
</svg>
