<svg width="20" height="15" viewBox="0 0 20 15" fill="none" xmlns="http://www.w3.org/2000/svg">
<path d="M19.7962 3.23618C19.7962 3.23618 19.6012 1.76604 18.9999 1.12093C18.2386 0.271903 17.3861 0.266572 16.9961 0.217256C14.1996 1.31481e-07 9.99937 0 9.99937 0H9.99187C9.99187 0 5.79286 1.31481e-07 2.99519 0.217256C2.60391 0.267905 1.75261 0.271903 0.991312 1.12093C0.390024 1.76604 0.198762 3.23618 0.198762 3.23618C0.198762 3.23618 0 4.9609 0 6.68962V8.30638C0 10.0311 0.198762 11.7598 0.198762 11.7598C0.198762 11.7598 0.393775 13.23 0.991312 13.8764C1.75261 14.7254 2.75267 14.6974 3.19895 14.7881C4.8003 14.9507 10.0006 15 10.0006 15C10.0006 15 14.2046 14.992 17.0011 14.7787C17.3923 14.7294 18.2436 14.7241 19.0049 13.8751C19.6062 13.23 19.8012 11.7585 19.8012 11.7585C19.8012 11.7585 20 10.0338 20 8.30505V6.68829C19.9963 4.96357 19.7975 3.23485 19.7975 3.23485L19.7962 3.23618ZM7.928 10.267V4.27315L13.3308 7.28008L7.928 10.267Z" fill="#F7F3ED"/>
</svg>
